<ttFont>
<head>
    <!-- Most of this table will be recalculated by the compiler -->
    <tableVersion value="1.0"/>
    <fontRevision value="1.0"/>
    <checkSumAdjustment value="0x7cf5cd1d"/>
    <magicNumber value="0x5f0f3cf5"/>
    <flags value="00000000 00000011"/>
    <unitsPerEm value="2048"/>
    <created value="Thu Aug 15 19:04:13 2019"/>
    <modified value="Fri Aug 16 02:19:03 2019"/>
    <xMin value="-465"/>
    <yMin value="-520"/>
    <xMax value="3345"/>
    <yMax value="1972"/>
<macStyle value="00000000 00000000"/>
    <lowestRecPPEM value="3"/>
    <fontDirectionHint value="2"/>
    <indexToLocFormat value="0"/>
    <glyphDataFormat value="0"/>
  </head>
          <CharString index="0">
            rmoveto
            -370 -44 0 -49 return
          </CharString>
          <CharString index="1">
            -1080 vlineto
            -89 -19 -21 -131 -18 vhcurveto
            -54 return
          </CharString>
          <CharString index="2">
            459 -350 285 return
          </CharString>
          <CharString index="3">
            rmoveto
            57 callsubr
            return
          </CharString>
          <CharString index="4">
            307 -224 202 -294 -298 -228 -211 -305 return
          </CharString>
          <CharString index="5">
            rmoveto
            -16 callsubr
            49 callsubr
            endchar
          </CharString>
          <CharString index="6">
            485 54 vlineto
            -102 14 -13 16 65 vvcurveto
            return
          </CharString>
          <CharString index="7">
            -388 76 callsubr
            70 callsubr
            279 174 -297 -388 -7 callsubr
            -98 callgsubr
            endchar
          </CharString>
          <CharString index="8">
            40 callsubr
            endchar
          </CharString>
          <CharString index="9">
            rmoveto
            299 228 212 305 return
          </CharString>
          <CharString index="10">
            160 callsubr
            endchar
          </CharString>
          <CharString index="11">
            63 -18 rlineto
            55 -17 8 return
          </CharString>
          <CharString index="12">
            -68 -55 -49 -65 -65 55 -49 68 hvcurveto
            endchar
          </CharString>
          <CharString index="13">
            19 -21 -89 vvcurveto
            -106 callsubr
            return
          </CharString>
          <CharString index="14">
            rmoveto
            68 55 49 65 65 -55 49 -68 return
          </CharString>
          <CharString index="15">
            rmoveto
            -29 callsubr
            23 callsubr
            -35 callsubr
            endchar
          </CharString>
          <CharString index="16">
            -74 callsubr
            endchar
          </CharString>
          <CharString index="17">
            630 -62 callgsubr
            -504 vlineto
            -65 -14 -16 -102 -14 vhcurveto
            -54 486 33 callgsubr
            return
          </CharString>
          <CharString index="18">
            -13 -56 vvcurveto
            -504 vlineto
            -211 136 -107 196 156 117 75 104 55 vhcurveto
            -170 vlineto
            return
          </CharString>
          <CharString index="19">
            1544 rmoveto
            325 142 callsubr
            return
          </CharString>
          <CharString index="20">
            rmoveto
            -312 216 -198 286 return
          </CharString>
          <CharString index="21">
            47 callsubr
            endchar
          </CharString>
          <CharString index="22">
            rmoveto
            -44 callgsubr
            65 callgsubr
            endchar
          </CharString>
          <CharString index="23">
            131 -18 19 -21 -89 vvcurveto
            return
          </CharString>
          <CharString index="24">
            67 callsubr
            endchar
          </CharString>
          <CharString index="25">
            63 -4 callsubr
            -76 callsubr
            return
          </CharString>
          <CharString index="26">
            19 callsubr
            endchar
          </CharString>
          <CharString index="27">
            rmoveto
            34 callsubr
            return
          </CharString>
          <CharString index="28">
            rmoveto
            1080 vlineto
            89 -38 callsubr
            -22 callsubr
            return
          </CharString>
          <CharString index="29">
            62 50 47 61 61 -50 47 -62 hvcurveto
            endchar
          </CharString>
          <CharString index="30">
            rmoveto
            538 126 -538 hlineto
            endchar
          </CharString>
          <CharString index="31">
            -648 84 callsubr
            return
          </CharString>
          <CharString index="32">
            rmoveto
            -367 -44 0 -49 63 -4 callsubr
            return
          </CharString>
          <CharString index="33">
            497 54 vlineto
            -110 15 -17 18 67 vvcurveto
            return
          </CharString>
          <CharString index="34">
            121 17 vhcurveto
            55 -556 -54 vlineto
            return
          </CharString>
          <CharString index="35">
            -73 -59 -55 -72 -72 59 -54 73 hvcurveto
            return
          </CharString>
          <CharString index="36">
            269 104 269 -104 0 57 -249 193 -41 0 -248 -193 rlineto
            return
          </CharString>
          <CharString index="37">
            1116 rmoveto
            343 356 rlineto
            9 return
          </CharString>
          <CharString index="38">
            1544 75 callgsubr
            return
          </CharString>
          <CharString index="39">
            rmoveto
            323 -784 -76 -148 -118 -190 -84 -106 rlinecurve
            -4 201 vlineto
            158 448 97 235 214 525 60 147 25 22 89 15 rlinecurve
            55 -352 -55 vlineto
            122 -14 19 -28 -47 -130 rrcurveto
            -185 -496 -184 500 -46 127 18 27 122 14 rlinecurve
            55 -517 -55 vlineto
            86 -17 26 -23 49 -120 rrcurveto
            endchar
          </CharString>
          <CharString index="40">
            1175 rmoveto
            73 59 54 72 72 -59 55 -73 return
          </CharString>
          <CharString index="41">
            -370 -44 0 -48 63 -18 rlineto
            56 -18 return
          </CharString>
          <CharString index="42">
            -255 vlineto
            -156 -365 rlineto
            return
          </CharString>
          <CharString index="43">
            1080 25 callgsubr
            return
          </CharString>
          <CharString index="44">
            182 rmoveto
            1080 vlineto
            89 return
          </CharString>
          <CharString index="45">
            -54 hlineto
            -84 callsubr
            return
          </CharString>
          <CharString index="46">
            rmoveto
            323 -539 rlineto
            -456 30 callsubr
            587 80 callsubr
            470 vlineto
            300 191 callsubr
            9 -41 -91 -83 callgsubr
            45 callgsubr
            endchar
          </CharString>
          <CharString index="47">
            -363 rlineto
            50 hlineto
            46 232 79 51 260 15 55 2 rcurveline
            return
          </CharString>
          <CharString index="48">
            423 1488 rmoveto
            -66 callsubr
            -55 callsubr
            return
          </CharString>
          <CharString index="49">
            vlineto
            55 -2 261 -15 79 -52 46 -231 rlinecurve
            50 hlineto
            return
          </CharString>
          <CharString index="50">
            -495 -676 495 vlineto
            85 21 19 return
          </CharString>
          <CharString index="51">
            420 999 -75 callsubr
            return
          </CharString>
          <CharString index="52">
            8 -13 -56 vvcurveto
            -1137 84 callsubr
            return
          </CharString>
          <CharString index="53">
            -1185 30 callsubr
            return
          </CharString>
          <CharString index="54">
            -538 -185 rlineto
            -56 vlineto
            return
          </CharString>
          <CharString index="55">
            587 54 vlineto
            -141 17 return
          </CharString>
          <CharString index="56">
            -21 27 98 vvcurveto
            1185 return
          </CharString>
          <CharString index="57">
            -42 callsubr
            endchar
          </CharString>
          <CharString index="58">
            1576 rmoveto
            63 50 48 60 61 -50 47 -63 28 callsubr
            return
          </CharString>
          <CharString index="59">
            1116 rmoveto
            230 193 226 -193 -94 callgsubr
            return
          </CharString>
          <CharString index="60">
            rmoveto
            -8 -300 rlineto
            50 hlineto
            44 179 55 43 186 9 rrcurveto
            return
          </CharString>
          <CharString index="61">
            10 -47 hhcurveto
            -93 -66 -55 -109 1 hvcurveto
            60 hlineto
            46 1 28 return
          </CharString>
          <CharString index="62">
            -45 63 43 rlineto
            263 177 81 125 310 vvcurveto
            endchar
          </CharString>
          <CharString index="63">
            1116 rmoveto
            68 hlineto
            -151 365 rlineto
            -264 -9 hlineto
            return
          </CharString>
          <CharString index="64">
            1277 1444 rmoveto
            -1219 hlineto
            -13 return
          </CharString>
          <CharString index="65">
            556 54 vlineto
            -121 17 -21 19 86 vvcurveto
            return
          </CharString>
          <CharString index="66">
            445 1444 4 callsubr
            return
          </CharString>
          <CharString index="67">
            rmoveto
            138 94 69 106 106 -85 66 return
          </CharString>
          <CharString index="68">
            1474 rmoveto
            149 vlineto
            return
          </CharString>
          <CharString index="69">
            20 21 129 18 vhcurveto
            54 return
          </CharString>
          <CharString index="70">
            -55 vlineto
            62 callsubr
            return
          </CharString>
          <CharString index="71">
            rmoveto
            -160 118 -105 156 -33 vhcurveto
            -162 -31 -99 -78 -112 vvcurveto
            -113 110 -71 154 -2 vhcurveto
            -215 -23 -102 -79 -107 vvcurveto
            -147 185 -99 298 286 226 145 214 1 vhcurveto
            180 -138 102 -252 vhcurveto
            -192 hlineto
            -110 -57 33 62 53 41 39 79 19 hvcurveto
            -7 45 35 -4 37 hhcurveto
            232 201 124 206 106 -57 90 -92 43 hvcurveto
            270 -16 0 89 -343 -20 rlineto
            23 -58 -75 15 -84 hhcurveto
            -244 -194 -133 -203 hvcurveto
            242 11 rmoveto
            155 72 103 121 128 75 -107 -161 -156 -77 -102 -117 -121 -81 104 164 vhcurveto
            -73 -901 rmoveto
            91 56 64 110 16 vhcurveto
            194 hlineto
            156 68 -60 -100 -126 -123 -81 -182 -176 -103 82 114 hvcurveto
            endchar
          </CharString>
          <CharString index="72">
            -55 -271 -78 -49 -290 -12 rrcurveto
            -247 -9 0 645 259 -4 108 -3 27 -43 29 -157 rlinecurve
            47 476 -47 hlineto
            -33 -158 -24 -41 -107 -3 rrcurveto
            -259 59 callgsubr
            51 hlineto
            return
          </CharString>
          <CharString index="73">
            -217 124 -79 148 109 105 49 50 42 vhcurveto
            90 callgsubr
            1 callgsubr
            return
          </CharString>
          <CharString index="74">
            rmoveto
            163 113 93 146 -7 hvcurveto
            -59 hlineto
            -63 -4 -87 -42 -119 hhcurveto
            -118 -88 42 63 -4 hvcurveto
            -59 hlineto
            -146 -7 113 -93 163 hhcurveto
            return
          </CharString>
          <CharString index="75">
            -304 -180 314 381 387 179 258 301 -14 callgsubr
          </CharString>
          <CharString index="76">
            1497 rmoveto
            -230 -194 -226 194 137 callsubr
            return
          </CharString>
          <CharString index="77">
            1474 rmoveto
            538 -92 0 56 -538 185 rlineto
            return
          </CharString>
          <CharString index="78">
            -1072 -62 callsubr
            -106 callsubr
            return
          </CharString>
          <CharString index="79">
            1605 rmoveto
            521 122 -521 hlineto
            return
          </CharString>
          <CharString index="80">
            1219 rmoveto
            578 140 -578 hlineto
            return
          </CharString>
          <CharString index="81">
            vlineto
            -89 -19 -21 -130 -18 vhcurveto
            -54 return
          </CharString>
          <CharString index="82">
            1481 rmoveto
            -228 -9 hlineto
            return
          </CharString>
          <CharString index="83">
            -157 -118 -72 -103 -56 vhcurveto
            return
          </CharString>
          <CharString index="84">
            -142 0 -207 -279 rlineto
            return
          </CharString>
          <CharString index="85">
            -563 -54 vlineto
            131 -18 return
          </CharString>
          <CharString index="86">
            -169 -107 callsubr
            return
          </CharString>
          <CharString index="87">
            576 81 callsubr
            return
          </CharString>
          <CharString index="88">
            rmoveto
            552 97 -552 hlineto
            return
          </CharString>
          <CharString index="89">
            rmoveto
            275 -774 115 0 273 740 262 -740 115 0 275 748 54 149 28 22 86 15 rlinecurve
            55 -333 -55 vlineto
            107 -13 17 -29 -43 -133 rrcurveto
            -163 -494 -163 497 -42 130 16 30 102 12 rlinecurve
            55 -471 -55 vlineto
            101 -12 16 -30 -42 -129 rrcurveto
            -168 -498 -159 497 -41 130 14 29 108 13 rlinecurve
            55 -501 -55 vlineto
            87 -18 32 -22 43 -120 rrcurveto
            endchar
          </CharString>
          <CharString index="90">
            rmoveto
            -460 330 -291 432 202 202 56 85 115 vhcurveto
            388 vlineto
            91 18 19 128 14 vhcurveto
            53 -543 -53 vlineto
            139 -14 18 -19 -91 vvcurveto
            -381 vlineto
            -44 -55 -94 -28 -113 hhcurveto
            -305 -179 313 382 387 178 258 305 221 140 -130 -238 55 hvcurveto
            50 hlineto
            -12 342 rlineto
            57 -81 -160 45 -229 hhcurveto
            -425 -337 -266 -475 hvcurveto
            endchar
          </CharString>
          <CharString index="91">
            -433 1190 -162 0 -424 -1158 -68 -187 -29 -33 -113 -16 rlinecurve
            -54 414 54 vlineto
            -147 20 -18 39 59 173 rrcurveto
            74 217 482 0 84 -242 52 -150 -22 -39 -139 -18 rlinecurve
            -54 return
          </CharString>
          <CharString index="92">
            1620 472 176 29 callsubr
            -18 53 callgsubr
            return
          </CharString>
          <CharString index="93">
            rmoveto
            -466 336 -286 427 203 185 55 57 78 vhcurveto
            12 343 rlineto
            -52 callgsubr
            return
          </CharString>
          <CharString index="94">
            1585 rmoveto
            169 93 124 126 17 -1 17 return
          </CharString>
          <CharString index="95">
            17 427 rlineto
            -51 hlineto
            -64 -288 -90 -58 -256 -11 return
          </CharString>
          <CharString index="96">
            1169 rmoveto
            98 76 75 199 -6 hvcurveto
            return
          </CharString>
          <CharString index="97">
            510 54 vlineto
            -124 16 -16 17 77 vvcurveto
            return
          </CharString>
          <CharString index="98">
            -69 -55 -52 -68 -67 55 -52 69 hvcurveto
            return
          </CharString>
          <CharString index="99">
            vlineto
            85 21 19 -73 callsubr
            return
          </CharString>
          <CharString index="100">
            -372 -126 -283 -307 return
          </CharString>
          <CharString index="101">
            -141 0 -207 -279 rlineto
            return
          </CharString>
          <CharString index="102">
            1116 rmoveto
            83 callgsubr
            return
          </CharString>
          <CharString index="103">
            -18 rlineto
            56 -17 8 -13 -56 vvcurveto
            return
          </CharString>
          <CharString index="104">
            -42 -40 -54 -52 42 -40 53 hvcurveto
            return
          </CharString>
          <CharString index="105">
            -63 -50 -47 -61 -61 50 -47 63 return
          </CharString>
          <CharString index="106">
            68 callsubr
            -69 0 return
          </CharString>
          <CharString index="107">
            1663 94 721 rmoveto
            return
          </CharString>
          <CharString index="108">
            710 167 276 rmoveto
            return
          </CharString>
          <CharString index="109">
            rmoveto
            380 -1190 158 0 364 1160 353 -1160 159 0 373 1158 59 187 34 33 113 16 rlinecurve
            54 -413 -54 vlineto
            146 -20 12 -38 -49 -172 rrcurveto
            -261 -901 -268 928 -45 156 11 28 134 19 rlinecurve
            54 -555 -54 vlineto
            140 -21 15 -28 -46 -161 rrcurveto
            -263 -921 -274 927 -43 148 16 38 139 18 rlinecurve
            54 -584 -54 vlineto
            104 -14 39 -29 52 -161 rrcurveto
            endchar
          </CharString>
          <CharString index="110">
            rmoveto
            538 141 vlineto
            433 -714 rlineto
            348 51 hlineto
            -71 22 -48 44 -132 215 rrcurveto
            -344 573 239 259 145 155 67 47 116 24 rlinecurve
            54 -444 -54 vlineto
            143 -15 7 -44 -107 -129 rrcurveto
            -353 -422 -140 -1 rlineto
            489 -8 callsubr
            130 -18 20 -21 -89 vvcurveto
            -1080 vlineto
            -89 -20 -21 -130 -18 vhcurveto
            -54 -50 callsubr
          </CharString>
          <CharString index="111">
            rmoveto
            -403 -54 hlineto
            117 -21 26 -30 -106 vvcurveto
            -9 -983 -1 -145 -19 -33 -131 -18 rlinecurve
            -54 407 54 vlineto
            -135 16 -20 32 -2 149 rrcurveto
            -18 997 856 -1248 194 0 10 1194 2 145 18 33 131 18 rlinecurve
            54 -407 -54 vlineto
            136 -16 18 -32 3 -149 19 -908 rcurveline
            return
          </CharString>
          <CharString index="112">
            rmoveto
            92 64 63 129 -1 hvcurveto
            -59 hlineto
            -55 -1 -27 -21 -44 hhcurveto
            -26 -28 8 14 -39 hvcurveto
            -31 12 rlineto
            16 -41 -42 11 -45 hhcurveto
            -91 -65 -63 -129 1 hvcurveto
            59 hlineto
            55 1 27 20 44 hhcurveto
            26 28 -7 -15 39 hvcurveto
            -93 callgsubr
            return
          </CharString>
          <CharString index="113">
            rmoveto
            170 139 65 94 68 hvcurveto
            155 callsubr
            -309 216 -201 281 vhcurveto
            endchar
          </CharString>
          <CharString index="114">
            1228 400 999 -107 callsubr
            -96 callsubr
            -89 callsubr
            return
          </CharString>
          <CharString index="115">
            16 404 rlineto
            -50 hlineto
            -59 -274 -92 -79 callgsubr
            -6 callgsubr
            endchar
          </CharString>
          <CharString index="116">
            -186 -7 rcurveline
            1188 -20 callgsubr
            -106 callsubr
            vlineto
            return
          </CharString>
          <CharString index="117">
            1162 1102 hmoveto
            -12 callsubr
            9 callsubr
            return
          </CharString>
          <CharString index="118">
            rmoveto
            214 174 211 -174 64 -64 callgsubr
          </CharString>
          <CharString index="119">
            vlineto
            65 13 15 102 14 vhcurveto
            55 -485 -37 callsubr
            return
          </CharString>
          <CharString index="120">
            rmoveto
            212 356 rlineto
            9 -223 vlineto
            -55 -365 rlineto
            return
          </CharString>
          <CharString index="121">
            16 21 -29 hvcurveto
            -1 -53 rlineto
            -46 36 75 -31 91 hhcurveto
            return
          </CharString>
          <CharString index="122">
            1576 rmoveto
            63 49 48 60 61 -49 47 -63 return
          </CharString>
          <CharString index="123">
            1497 rmoveto
            -229 -194 -227 194 return
          </CharString>
          <CharString index="124">
            1305 rmoveto
            -117 120 -75 148 return
          </CharString>
          <CharString index="125">
            1116 rmoveto
            229 193 227 -193 return
          </CharString>
          <CharString index="126">
            563 54 vlineto
            -129 18 -20 21 89 vvcurveto
            return
          </CharString>
          <CharString index="127">
            42 40 52 54 -42 40 -53 hvcurveto
            -8 hlineto
            -53 return
          </CharString>
          <CharString index="128">
            1472 746 126 callsubr
            return
          </CharString>
          <CharString index="129">
            -95 67 -115 -8 -8 -1 -1 -8 hvcurveto
            return
          </CharString>
          <CharString index="130">
            1118 vlineto
            17 404 rlineto
            -51 hlineto
            return
          </CharString>
          <CharString index="131">
            32 7 33 hhcurveto
            62 47 -28 -49 -50 return
          </CharString>
          <CharString index="132">
            19 45 hhcurveto
            27 28 -6 -13 40 hvcurveto
            return
          </CharString>
          <CharString index="133">
            -54 hlineto
            130 -18 19 -21 -89 vvcurveto
            return
          </CharString>
          <CharString index="134">
            -61 hlineto
            -99 -4 92 callgsubr
            return
          </CharString>
          <CharString index="135">
            -62 -50 -47 -61 -60 50 -48 62 hvcurveto
            return
          </CharString>
          <CharString index="136">
            rmoveto
            528 676 -528 vlineto
            -86 return
          </CharString>
          <CharString index="137">
            vlineto
            -98 -21 -27 -140 -17 vhcurveto
            -54 return
          </CharString>
          <CharString index="138">
            -158 -120 -75 -103 -55 vhcurveto
            return
          </CharString>
          <CharString index="139">
            86 490 -87 callsubr
            return
          </CharString>
          <CharString index="140">
            -41 -40 -54 -52 41 -40 53 hvcurveto
            return
          </CharString>
          <CharString index="141">
            -62 -50 -47 -61 -61 50 -47 62 return
          </CharString>
          <CharString index="142">
            -77 -117 vhcurveto
            167 hmoveto
            80 return
          </CharString>
          <CharString index="143">
            rmoveto
            167 116 79 124 return
          </CharString>
          <CharString index="144">
            1116 95 callgsubr
            return
          </CharString>
          <CharString index="145">
            19 21 130 18 vhcurveto
            54 return
          </CharString>
          <CharString index="146">
            -17 8 -89 callsubr
            return
          </CharString>
          <CharString index="147">
            rmoveto
            152 123 67 87 48 hvcurveto
            -96 20 83 -53 106 hhcurveto
            75 63 22 25 35 hvcurveto
            50 vlineto
            -5 -12 -16 -2 -18 hhcurveto
            -59 -45 35 86 hvcurveto
            492 vlineto
            221 -155 97 -243 -239 -173 -100 -133 -68 54 -49 68 69 54 51 66 55 -38 46 -49 12 vhcurveto
            25 47 59 15 65 hhcurveto
            148 95 -68 -183 hvcurveto
            -96 vlineto
            -210 -45 rlineto
            -284 -60 -112 -96 -153 vvcurveto
            -145 121 -100 168 vhcurveto
            -46 286 rmoveto
            113 65 70 192 43 vhcurveto
            106 24 rlineto
            -331 vlineto
            -61 -38 -66 -34 -84 hhcurveto
            -99 -76 64 112 hvcurveto
            return
          </CharString>
          <CharString index="148">
            rmoveto
            -129 -188 -42 -35 -111 -15 rrcurveto
            -54 422 54 vlineto
            -149 20 -3 39 101 163 rrcurveto
            228 361 261 -405 75 -116 -5 -41 -141 -21 rlinecurve
            -54 592 54 vlineto
            -97 23 -44 32 -77 122 rrcurveto
            -345 535 272 394 124 180 43 35 110 15 rlinecurve
            54 -421 -54 vlineto
            149 -20 3 -39 -100 -159 rrcurveto
            -217 -347 -249 387 -78 123 5 34 143 21 rlinecurve
            54 -586 -54 vlineto
            97 -23 38 -33 79 -121 331 -516 rcurveline
            endchar
          </CharString>
          <CharString index="149">
            rmoveto
            -397 278 -170 306 360 209 221 342 4 vhcurveto
            6 868 rlineto
            -2 17 18 -2 18 hhcurveto
            148 82 64 105 89 -63 85 -90 44 hvcurveto
            -54 hlineto
            21 -26 16 -54 -54 vvcurveto
            -119 -1 -83 -93 -188 hhcurveto
            -101 -54 hlineto
            149 -21 17 -21 1 -116 5 -682 rcurveline
            -292 2 -157 -167 -248 hhcurveto
            -237 -171 146 315 hvcurveto
            704 vlineto
            93 21 20 145 21 vhcurveto
            54 -581 -54 vlineto
            129 -20 22 -21 -93 vvcurveto
            endchar
          </CharString>
          <CharString index="150">
            rmoveto
            -424 -54 hlineto
            117 -18 27 -32 -4 -106 rrcurveto
            -33 -991 -6 -140 -19 -32 -130 -17 rlinecurve
            -54 401 54 vlineto
            -132 18 -17 32 1 142 rrcurveto
            8 1018 480 -1264 122 0 82 252 376 1010 30 -1083 3 -89 -22 -21 -124 -15 rlinecurve
            -54 555 54 vlineto
            -129 16 -17 21 -3 91 rrcurveto
            -32 1080 -2 89 22 22 125 17 rlinecurve
            54 -432 vlineto
            -395 -1149 rlineto
            endchar
          </CharString>
          <CharString index="151">
            318 -171 239 -240 114 vhcurveto
            -6 31 34 -4 34 hhcurveto
            173 119 60 124 hvcurveto
            1 92 -68 85 -93 44 rrcurveto
            -54 hlineto
            21 -26 16 -56 -52 vvcurveto
            -124 -80 -87 -158 vhcurveto
            -89 -93 23 -121 -77 callgsubr
            279 174 -297 -388 -7 callsubr
            -98 callgsubr
            endchar
          </CharString>
          <CharString index="152">
            rmoveto
            275 -229 145 -389 vhcurveto
            -562 -62 callsubr
            -106 callsubr
            -20 callsubr
            381 148 vlineto
            350 268 150 297 hvcurveto
            -282 -14 rmoveto
            -220 -129 -137 -268 -11 vhcurveto
            -87 -3 0 742 87 -3 rlineto
            272 -11 125 -143 -214 vvcurveto
            endchar
          </CharString>
          <CharString index="153">
            -650 vlineto
            -66 -16 -17 -111 -15 vhcurveto
            -54 -10 callsubr
            559 vlineto
            51 49 111 34 104 hhcurveto
            46 45 -7 -7 23 hvcurveto
            12 17 9 34 34 vvcurveto
            67 -34 56 -80 -92 -85 -76 -162 -111 vhcurveto
            return
          </CharString>
          <CharString index="154">
            173 139 64 96 69 vhcurveto
            -103 callgsubr
            -151 166 260 -15 hvcurveto
            652 161 callsubr
            -431 -3 rlineto
            224 4 90 120 142 hhcurveto
            return
          </CharString>
          <CharString index="155">
            vlineto
            89 -38 callsubr
            -563 -54 vlineto
            -84 callsubr
            return
          </CharString>
          <CharString index="156">
            589 54 vlineto
            -109 16 -33 33 -57 155 rrcurveto
            -823 316 rmoveto
            214 629 219 -629 rlineto
            return
          </CharString>
          <CharString index="157">
            hlineto
            -54 -4 -89 -35 -122 hhcurveto
            -121 -90 35 54 -4 hvcurveto
            -60 hlineto
            -124 -8 116 -79 167 hhcurveto
            return
          </CharString>
          <CharString index="158">
            183 callsubr
            436 hmoveto
            92 callsubr
            return
          </CharString>
          <CharString index="159">
            312 -356 rlineto
            71 hlineto
            211 365 rmoveto
            -213 -9 hlineto
            224 -356 rlineto
            return
          </CharString>
          <CharString index="160">
            -33 hvcurveto
            -30 20 rlineto
            35 -50 -41 23 -55 -50 callgsubr
            25 -40 callgsubr
            return
          </CharString>
          <CharString index="161">
            rmoveto
            -94 -69 -44 -52 -33 hvcurveto
            -42 vlineto
            22 26 43 17 49 hhcurveto
            63 34 callgsubr
            return
          </CharString>
          <CharString index="162">
            -65 -63 -128 1 hvcurveto
            59 hlineto
            54 1 27 22 44 hhcurveto
            26 28 -8 -15 39 hvcurveto
            return
          </CharString>
          <CharString index="163">
            61 48 47 60 60 -48 46 -61 -60 -48 -46 -60 -60 48 -47 60 hvcurveto
            return
          </CharString>
          <CharString index="164">
            -459 351 -286 387 446 291 332 416 return
          </CharString>
          <CharString index="165">
            1845 rmoveto
            551 -79 0 48 -551 158 rlineto
            return
          </CharString>
          <CharString index="166">
            1844 rmoveto
            128 vlineto
            -551 -158 rlineto
            -48 vlineto
            return
          </CharString>
          <CharString index="167">
            -118 -81 -59 -35 -38 -28 hvcurveto
            -48 vlineto
            8 18 32 7 return
          </CharString>
          <CharString index="168">
            1116 rmoveto
            344 356 rlineto
            9 -65 callsubr
            return
          </CharString>
          <CharString index="169">
            109 -14 18 -18 -68 vvcurveto
            -678 84 callsubr
            return
          </CharString>
          <CharString index="170">
            -42 callgsubr
            -51 -39 -34 -44 -45 39 -34 51 hvcurveto
            return
          </CharString>
          <CharString index="171">
            -88 0 49 -255 163 -42 0 -254 -163 rlineto
            return
          </CharString>
          <CharString index="172">
            rmoveto
            69 54 49 65 65 -54 49 -69 -95 callsubr
          </CharString>
          <CharString index="173">
            rmoveto
            -63 -49 -47 -61 -61 49 -47 63 -78 callsubr
          </CharString>
          <CharString index="174">
            367 43 0 48 -62 18 rlineto
            -17 callgsubr
            return
          </CharString>
          <CharString index="175">
            1836 rmoveto
            -212 -143 -210 143 return
          </CharString>
          <CharString index="176">
            -117 -81 -60 -35 -38 -27 hvcurveto
            -48 vlineto
            8 17 return
          </CharString>
          <CharString index="177">
            295 16 rmoveto
            373 125 282 308 return
          </CharString>
          <CharString index="178">
            208 -279 141 0 207 279 rlineto
            return
          </CharString>
          <CharString index="179">
            1232 86 484 163 callsubr
            return
          </CharString>
          <CharString index="180">
            282 1168 rmoveto
            48 callgsubr
            return
          </CharString>
          <CharString index="181">
            25 -58 hhcurveto
            -98 -76 -74 -200 6 hvcurveto
            return
          </CharString>
          <CharString index="182">
            -61 -7 hlineto
            -102 -91 -73 -136 -136 return
          </CharString>
          <CharString index="183">
            -446 -291 -331 -416 vhcurveto
            return
          </CharString>
          <CharString index="184">
            -245 144 -145 175 hvcurveto
            return
          </CharString>
          <CharString index="185">
            148 120 75 118 116 return
          </CharString>
          <CharString index="186">
            109 -1 hvcurveto
            -60 hlineto
            -46 -1 -28 return
          </CharString>
          <CharString index="187">
            54 vlineto
            -141 17 -20 27 98 vvcurveto
            return
          </CharString>
          <CharString index="188">
            54 vlineto
            -141 17 -21 27 98 vvcurveto
            return
          </CharString>
          <CharString index="189">
            50 -28 -52 -52 -48 -30 -63 -50 -52 return
          </CharString>
          <CharString index="190">
            -3 15 hvcurveto
            -56 -6 hlineto
            -91 -81 -66 return
          </CharString>
          <CharString index="191">
            vlineto
            -67 -18 -18 -109 -15 vhcurveto
            -54 return
          </CharString>
          <CharString index="192">
            -1136 -98 callsubr
            return
          </CharString>
          <CharString index="193">
            1577 174 callsubr
            return
          </CharString>
          <CharString index="194">
            -978 vlineto
            -338 -72 -157 return
          </CharString>
          <CharString index="195">
            -181 -142 -141 -249 return
          </CharString>
          <CharString index="196">
            603 -20 -98 callsubr
            return
          </CharString>
          <CharString index="197">
            315 hmoveto
            63 callsubr
            return
          </CharString>
          <CharString index="198">
            142 0 207 279 rlineto
            return
          </CharString>
          <CharString index="199">
            69 56 52 67 68 -56 52 -69 return
          </CharString>
          <CharString index="200">
            63 50 47 61 61 -50 47 -63 return
          </CharString>
          <CharString index="201">
            62 hlineto
            99 4 25 33 43 hhcurveto
            return
          </CharString>
          <CharString index="202">
            -13 -56 vvcurveto
            -661 vlineto
            -295 return
          </CharString>
          <CharString index="203">
            -37 -141 -159 -137 vhcurveto
            return
          </CharString>
          <CharString index="204">
            -49 -47 -61 -60 49 -48 63 hvcurveto
            return
          </CharString>
          <CharString index="205">
            -66 -15 -17 -111 -15 vhcurveto
            -54 return
          </CharString>
          <CharString index="206">
            rmoveto
            291 235 167 265 207 -122 140 -255 87 hvcurveto
            -117 40 rlineto
            -173 61 -97 76 138 vvcurveto
            137 98 98 186 180 131 -118 -224 48 vhcurveto
            51 hlineto
            -12 321 rlineto
            52 -68 -142 45 -186 hhcurveto
            -306 -215 -153 -251 -202 133 -140 242 -81 hvcurveto
            118 -40 rlineto
            186 -64 85 -89 -139 vvcurveto
            -154 -116 -103 -174 -203 -171 125 250 -55 vhcurveto
            -50 hlineto
            13 -340 rlineto
            -62 92 168 -49 205 hhcurveto
            return
          </CharString>
          <CharString index="207">
            rmoveto
            -246 342 194 253 83 110 32 27 94 18 rlinecurve
            55 -359 -55 vlineto
            117 -14 14 -22 -65 -98 rrcurveto
            -152 -216 -154 214 -67 97 12 29 122 10 rlinecurve
            55 -502 -55 vlineto
            68 -13 32 -24 62 -86 rrcurveto
            244 -339 -190 -251 -87 -116 -33 -28 -101 -21 rlinecurve
            -54 365 54 vlineto
            -109 14 -22 25 70 104 rrcurveto
            148 215 157 -218 71 -101 -14 -27 -121 -12 rlinecurve
            -54 506 54 vlineto
            -71 15 -35 25 -63 88 rrcurveto
            endchar
          </CharString>
          <CharString index="208">
            rmoveto
            -156 111 -88 181 -55 vhcurveto
            81 -24 rlineto
            128 -39 55 -50 -87 vvcurveto
            -91 -78 -65 -124 -144 -129 99 178 -38 vhcurveto
            -51 hlineto
            10 -268 rlineto
            -47 72 134 -36 150 hhcurveto
            222 187 113 189 162 -103 94 -184 55 hvcurveto
            -81 24 rlineto
            -120 37 -68 43 87 vvcurveto
            88 73 59 123 131 100 -86 -158 32 vhcurveto
            51 hlineto
            -6 252 rlineto
            34 -54 -111 31 -146 hhcurveto
            -241 -163 -109 -186 hvcurveto
            return
          </CharString>
          <CharString index="209">
            rmoveto
            -86 -76 -36 -39 -40 hvcurveto
            -53 vlineto
            7 12 21 7 27 hhcurveto
            69 35 -39 -106 hvcurveto
            -69 -6 -243 -68 vvcurveto
            -229 131 -151 245 249 205 205 369 278 -92 174 -135 -92 -58 -83 -109 28 vhcurveto
            146 -36 95 -154 -193 vvcurveto
            -215 -105 -111 -151 -149 -74 101 184 vhcurveto
            69 8 237 54 vvcurveto
            170 -71 79 -136 vhcurveto
            endchar
          </CharString>
          <CharString index="210">
            319 -188 184 -219 -146 -127 -71 -110 -52 vhcurveto
            1 663 -66 callsubr
            7 -13 -56 vvcurveto
            -1291 106 vlineto
            108 123 rlineto
            -81 47 107 -62 134 hhcurveto
            262 211 204 319 hvcurveto
            -252 -24 rmoveto
            -255 -116 -157 -169 -90 -73 47 56 -31 vhcurveto
            605 vlineto
            71 39 72 40 95 hhcurveto
            161 112 -153 -254 hvcurveto
            return
          </CharString>
          <CharString index="211">
            1683 842 -24 rmoveto
            410 337 336 411 411 -337 336 -410 -411 -337 -336 -411 -411 337 -336 411 hvcurveto
            51 vmoveto
            -378 -311 314 382 382 311 314 378 378 310 -314 -382 -382 -311 -314 -377 hvcurveto
            return
          </CharString>
          <CharString index="212">
            rmoveto
            226 -192 124 -280 16 vhcurveto
            218 18 185 105 194 vvcurveto
            224 -214 121 -356 vhcurveto
            -589 -62 callsubr
            -106 callsubr
            209 callsubr
            endchar
          </CharString>
          <CharString index="213">
            rmoveto
            10 -720 rlineto
            -199 3 99 -88 154 hhcurveto
            111 98 49 69 51 hvcurveto
            54 vlineto
            -23 -30 -45 -16 -59 hhcurveto
            -97 -62 57 131 2 hvcurveto
            58 11 512 5 116 vhcurveto
            endchar
          </CharString>
          <CharString index="214">
            332 hmoveto
            53 41 40 52 54 -41 40 -53 hvcurveto
            -8 hlineto
            -53 -3 callsubr
            endchar
          </CharString>
          <CharString index="215">
            50 40 34 45 44 -40 34 -50 hvcurveto
            -8 hlineto
            -51 -40 -34 -44 143 callsubr
            44 -39 34 -51 hvcurveto
            -8 hlineto
            -91 callgsubr
            endchar
          </CharString>
          <CharString index="216">
            1481 rmoveto
            -81 -365 69 0 225 356 rlineto
            9 vlineto
            152 hmoveto
            -155 -365 72 0 311 356 rlineto
            9 vlineto
            return
          </CharString>
          <CharString index="217">
            1116 rmoveto
            178 356 rlineto
            9 -212 vlineto
            -28 -365 rlineto
            -177 49 rmoveto
            93 callsubr
            34 callsubr
            hvcurveto
            return
          </CharString>
          <CharString index="218">
            -46 -28 -65 -56 -37 callgsubr
            87 hhcurveto
            endchar
          </CharString>
          <CharString index="219">
            1577 rmoveto
            60 48 47 60 60 -48 46 -60 -61 -48 -46 -60 -60 48 -47 61 hvcurveto
            328 hmoveto
            60 return
          </CharString>
          <CharString index="220">
            hvcurveto
            57 hlineto
            89 4 23 30 40 hhcurveto
            28 23 -12 -23 33 hvcurveto
            28 -21 rlineto
            -35 49 41 -21 53 hhcurveto
            endchar
          </CharString>
          <CharString index="221">
            hvcurveto
            -8 hlineto
            -53 33 callsubr
            332 hmoveto
            53 return
          </CharString>
          <CharString index="222">
            1432 -85 callgsubr
            111 -426 rmoveto
            return
          </CharString>
          <CharString index="223">
            9 -47 hhcurveto
            -93 -66 -54 -109 1 hvcurveto
            60 hlineto
            46 1 28 19 45 hhcurveto
            27 28 -7 -13 40 hvcurveto
            return
          </CharString>
          <CharString index="224">
            392 1445 rmoveto
            -76 hlineto
            -220 -115 0 -36 126 33 19 callgsubr
            return
          </CharString>
          <CharString index="225">
            -55 vlineto
            100 -13 13 -16 -65 vvcurveto
            -773 -375 773 vlineto
            65 13 16 100 13 vhcurveto
            55 return
          </CharString>
          <CharString index="226">
            1884 rmoveto
            -170 -92 -125 -126 -17 1 -17 2 -14 hvcurveto
            57 5 hlineto
            91 return
          </CharString>
          <CharString index="227">
            1561 rmoveto
            94 74 69 186 -6 hvcurveto
            -61 hlineto
            -91 -4 -24 -29 -40 hhcurveto
            -28 return
          </CharString>
          <CharString index="228">
            -214 -141 vhcurveto
            25 -47 rlineto
            337 154 188 154 348 vvcurveto
            endchar
          </CharString>
          <CharString index="229">
            1511 175 1268 rmoveto
            -44 callgsubr
            65 callgsubr
            return
          </CharString>
          <CharString index="230">
            69 42 83 vvcurveto
            82 -83 46 -92 vhcurveto
            -476 -511 rmoveto
            -71 callsubr
            return
          </CharString>
          <CharString index="231">
            52 vhcurveto
            -175 vlineto
            368 43 0 48 -62 18 rlineto
            -57 17 -8 13 57 vvcurveto
            return
          </CharString>
          <CharString index="232">
            1917 rmoveto
            -76 -57 -31 -32 -32 hvcurveto
            -39 vlineto
            13 22 41 11 44 hhcurveto
            return
          </CharString>
          <CharString index="233">
            166 callsubr
            -293 -20 -57 callgsubr
            52 callgsubr
            return
          </CharString>
          <CharString index="234">
            1823 rmoveto
            551 -78 0 48 -551 157 rlineto
            -452 vmoveto
            return
          </CharString>
          <CharString index="235">
            1561 rmoveto
            94 73 69 186 -5 hvcurveto
            -61 hlineto
            -91 -5 -23 -29 return
          </CharString>
          <CharString index="236">
            1144 rmoveto
            190 103 141 145 19 -2 18 -3 18 hvcurveto
            return
          </CharString>
          <CharString index="237">
            68 56 52 67 68 -56 52 -68 -69 -56 -52 -68 -67 56 -52 69 hvcurveto
            return
          </CharString>
          <CharString index="238">
            64 52 46 61 61 -52 46 -64 -64 -52 -46 -61 -61 52 -46 64 hvcurveto
            return
          </CharString>
          <CharString index="239">
            42 56 59 59 42 -56 -79 -81 -42 -54 -59 -59 -42 54 80 vhcurveto
            return
          </CharString>
          <CharString index="240">
            -53 -43 74 callsubr
            61 hlineto
            99 4 51 callgsubr
            return
          </CharString>
          <CharString index="241">
            -61 vlineto
            -3 -18 -2 -18 -19 vvcurveto
            -145 103 -141 190 vhcurveto
            return
          </CharString>
          <CharString index="242">
            66 hlineto
            175 70 64 67 84 vvcurveto
            88 -79 61 -114 vhcurveto
            return
          </CharString>
          <CharString index="243">
            -68 0 207 -279 141 0 207 279 rlineto
            return
          </CharString>
          <CharString index="244">
            -70 0 229 -365 136 0 229 365 rlineto
            return
          </CharString>
          <CharString index="245">
            1824 rmoveto
            -226 -7 hlineto
            290 -274 rlineto
            return
          </CharString>
          <CharString index="246">
            -61 callgsubr
            -50 -47 -61 -60 50 -48 63 hvcurveto
            return
          </CharString>
          <CharString index="247">
            0 269 -39 callsubr
            -53 callsubr
            return
          </CharString>
          <CharString index="248">
            -18 -85 vvcurveto
            -1201 -547 1201 vlineto
            85 return
          </CharString>
          <CharString index="249">
            274 rlineto
            6 -254 vlineto
            -138 -279 rlineto
            return
          </CharString>
          <CharString index="250">
            -45 40 -34 51 hvcurveto
            314 hmoveto
            51 39 34 45 return
          </CharString>
          <CharString index="251">
            1605 rmoveto
            522 122 -522 hlineto
            return
          </CharString>
          <CharString index="252">
            1143 832 hmoveto
            154 callsubr
            return
          </CharString>
          <CharString index="253">
            58 -77 -77 -62 -58 -76 -75 62 -58 77 hvcurveto
            return
          </CharString>
          <CharString index="254">
            -33 hvcurveto
            -52 vlineto
            -42 35 75 -33 87 hhcurveto
            endchar
          </CharString>
          <CharString index="255">
            rmoveto
            127 vlineto
            -551 -157 rlineto
            -48 vlineto
            return
          </CharString>
          <CharString index="256">
            rmoveto
            184 138 98 187 28 hvcurveto
            -181 70 181 -104 192 hhcurveto
            171 137 69 89 67 hvcurveto
            54 vlineto
            -55 -55 -88 -37 -104 hhcurveto
            -218 -150 168 263 -14 hvcurveto
            639 hlineto
            3 18 1 23 23 vvcurveto
            247 -152 164 -258 -135 -114 -53 -89 -74 vhcurveto
            97 -54 -121 45 -146 hhcurveto
            -230 -159 -103 -123 -66 53 -50 68 70 54 51 67 52 -34 42 -46 14 hvcurveto
            23 44 57 14 64 hhcurveto
            146 104 -84 -191 hvcurveto
            -68 vlineto
            -201 -36 rlineto
            -290 -53 -121 -110 -158 vvcurveto
            -154 123 -93 170 vhcurveto
            768 953 rmoveto
            129 60 -118 -181 -14 0 -12 -1 -11 hvcurveto
            -418 -3 rlineto
            222 5 92 117 133 hhcurveto
            -656 -842 rmoveto
            -99 -66 65 111 115 68 79 190 39 hvcurveto
            114 23 rlineto
            -174 vlineto
            -182 -97 -76 -110 vhcurveto
            endchar
          </CharString>
          <CharString index="257">
            rmoveto
            -980 hlineto
            -591 -1156 -96 -187 -43 -31 -109 -16 rlinecurve
            -54 423 54 vlineto
            -135 19 -23 42 85 173 rrcurveto
            160 325 449 0 4 -437 rlineto
            -86 -20 -19 -122 -17 vhcurveto
            -54 1050 vlineto
            15 404 rlineto
            -51 hlineto
            -53 -271 -73 -48 -282 -13 rrcurveto
            -214 -9 -5 645 221 -4 108 -3 26 -43 30 -157 rlinecurve
            47 hlineto
            -3 476 rlineto
            -48 hlineto
            -30 -158 -24 -41 -107 -3 rrcurveto
            -221 -4 -5 610 189 -8 258 -12 79 -54 56 -226 rlinecurve
            50 hlineto
            -947 300 rmoveto
            66 hlineto
            6 -696 rlineto
            -414 hlineto
            endchar
          </CharString>
          <CharString index="258">
            rmoveto
            239 -196 150 -391 vhcurveto
            -576 -54 hlineto
            131 -17 19 -20 -91 vvcurveto
            -1080 vlineto
            -88 -19 -21 -131 -19 vhcurveto
            -54 556 54 vlineto
            -121 18 -21 20 84 vvcurveto
            477 210 vlineto
            338 -653 rlineto
            325 51 hlineto
            -59 17 -44 37 -115 215 -200 390 rcurveline
            176 45 118 126 174 vvcurveto
            -270 -18 rmoveto
            -204 -133 -107 -221 -7 vhcurveto
            -125 -5 0 667 102 -3 rlineto
            265 -9 112 -135 -197 vvcurveto
            return
          </CharString>
          <CharString index="259">
            rmoveto
            318 -188 185 -219 -148 -126 -75 -110 -52 vhcurveto
            178 vlineto
            -367 -44 0 -49 -96 callsubr
            -13 -56 vvcurveto
            -1110 vlineto
            98 callsubr
            -10 callsubr
            394 vlineto
            -69 48 97 -49 116 hhcurveto
            260 209 205 318 hvcurveto
            -252 -24 rmoveto
            -252 -114 -160 -169 -90 -76 45 58 -29 vhcurveto
            605 vlineto
            71 39 71 40 95 hhcurveto
            162 111 -156 -251 hvcurveto
            endchar
          </CharString>
          <CharString index="260">
            1389 472 176 rmoveto
            538 141 vlineto
            433 -714 rlineto
            348 51 hlineto
            -71 22 -48 44 -132 215 rrcurveto
            -344 573 239 259 145 155 67 47 116 24 rlinecurve
            54 -444 -54 vlineto
            143 -15 7 -44 -107 -129 rrcurveto
            -353 -422 -140 -1 rlineto
            489 -8 callsubr
            130 -18 20 -21 -89 vvcurveto
            -1080 vlineto
            -89 -20 -21 -130 -18 vhcurveto
            -54 -42 callsubr
            return
          </CharString>
          <CharString index="261">
            319 51 hlineto
            -65 15 -47 39 -83 144 rrcurveto
            -246 415 89 82 152 138 51 28 106 20 rlinecurve
            55 -407 -55 vlineto
            120 -18 10 -35 -87 -93 rrcurveto
            -207 -222 -114 -2 0 926 -66 callsubr
            -55 callsubr
            -101 callsubr
            349 vlineto
            117 -2 rlineto
            return
          </CharString>
          <CharString index="262">
            54 vlineto
            -54 -56 -90 -38 -104 hhcurveto
            -210 -160 163 273 235 128 153 189 65 54 -15 -28 39 hvcurveto
            -59 -4 -48 -51 -65 vvcurveto
            -68 53 -53 69 68 55 53 73 128 -118 111 -229 -293 -227 -209 -307 return
          </CharString>
          <CharString index="263">
            39 -679 rmoveto
            101 hlineto
            864 1444 rlineto
            -102 hlineto
            -897 -712 -99 callgsubr
            -68 callgsubr
            1033 -746 rmoveto
            181 -55 callgsubr
            -175 -182 -141 -141 -249 77 callsubr
            return
          </CharString>
          <CharString index="264">
            -22 -35 -35 -32 -23 -67 -17 hvcurveto
            47 -30 rlineto
            118 24 68 36 70 vvcurveto
            70 -81 40 -90 vhcurveto
            -507 -419 rmoveto
            -104 callgsubr
            return
          </CharString>
          <CharString index="265">
            rmoveto
            1005 vlineto
            89 38 callsubr
            -563 -90 callgsubr
            -978 vlineto
            -338 -71 -157 -214 -141 vhcurveto
            24 -47 rlineto
            337 154 189 154 348 vvcurveto
            endchar
          </CharString>
          <CharString index="266">
            rmoveto
            138 93 69 106 106 -85 66 69 callsubr
            33 7 32 hhcurveto
            62 47 -28 -49 -50 -46 -28 -65 -56 return
          </CharString>
          <CharString index="267">
            -307 224 -203 293 hvcurveto
            10 74 rmoveto
            -158 -108 176 274 263 94 166 162 158 107 -176 -274 -264 -93 -165 -162 hvcurveto
            return
          </CharString>
          <CharString index="268">
            hlineto
            2 16 2 25 24 vvcurveto
            248 -154 167 -266 -291 -192 -214 -302 vhcurveto
            482 443 rmoveto
            131 65 -120 -182 -16 0 -12 -1 -11 hvcurveto
            return
          </CharString>
          <CharString index="269">
            1302 vlineto
            -370 -43 0 -48 63 -18 rlineto
            55 -18 8 -13 -56 vvcurveto
            -402 vlineto
            70 -49 -96 47 -118 hhcurveto
            -258 -209 -203 -319 hvcurveto
            return
          </CharString>
          <CharString index="270">
            rmoveto
            -319 187 -185 219 147 128 74 110 124 callsubr
            162 callsubr
            252 24 rmoveto
            30 callgsubr
            return
          </CharString>
          <CharString index="271">
            1468 rmoveto
            -190 -102 -141 -144 -19 1 -19 3 -17 hvcurveto
            62 6 hlineto
            102 90 74 136 136 91 -74 -102 vhcurveto
            -6 61 vlineto
            return
          </CharString>
          <CharString index="272">
            41 -10 48 hhcurveto
            -393 -274 rmoveto
            -104 callgsubr
            return
          </CharString>
          <CharString index="273">
            rmoveto
            449 -353 249 -504 vhcurveto
            -557 -62 callsubr
            -106 callsubr
            562 vlineto
            460 392 270 476 hvcurveto
            return
          </CharString>
          <CharString index="274">
            rmoveto
            138 93 69 106 106 -84 66 60 callsubr
            32 hhcurveto
            62 47 -28 -49 -50 -46 -28 -65 -56 -49 17 24 147 callsubr
          </CharString>
          <CharString index="275">
            1 -48 rlineto
            4 10 20 3 17 hhcurveto
            66 51 -28 -52 -52 -49 -30 -63 -49 -53 16 21 -28 hvcurveto
            -1 -53 rlineto
            -46 36 75 -31 90 hhcurveto
            return
          </CharString>
          <CharString index="276">
            192 8 -538 -45 callgsubr
            -50 hlineto
            -40 -204 -61 -43 -169 -8 rrcurveto
            -228 -8 542 877 rlineto
            49 vlineto
            return
          </CharString>
          <CharString index="277">
            hvcurveto
            -57 hlineto
            -89 -4 -23 -30 -40 hhcurveto
            -28 -23 12 24 -33 hvcurveto
            -28 20 rlineto
            34 -49 -41 22 -53 hhcurveto
            -91 -71 -66 -180 5 hvcurveto
            return
          </CharString>
          <CharString index="278">
            1421 -85 callgsubr
            269 -415 rmoveto
            57 45 42 57 56 -45 44 -57 -57 -45 -44 -56 -57 45 -42 57 hvcurveto
            return
          </CharString>
          <CharString index="279">
            67 44 99 hhcurveto
            129 73 -63 callgsubr
            473 54 vlineto
            -102 14 -13 16 65 vvcurveto
            215 callsubr
            endchar
          </CharString>
          <CharString index="280">
            64 63 128 -1 hvcurveto
            -59 hlineto
            -54 -1 -27 -21 -44 hhcurveto
            -26 -28 7 15 -39 hvcurveto
            -31 12 rlineto
            16 -41 -42 10 return
          </CharString>
          <CharString index="281">
            rmoveto
            56 callsubr
            329 hmoveto
            60 48 47 60 60 -48 46 -60 -61 -48 -46 -60 -60 48 -47 61 hvcurveto
            return
          </CharString>
          <CharString index="282">
            441 rmoveto
            273 -218 151 -364 vhcurveto
            -185 383 hlineto
            98 21 27 141 17 vhcurveto
            54 return
          </CharString>
          <CharString index="283">
            -46 -56 -56 42 -43 53 hvcurveto
            4 4 0 3 hhcurveto
            -46 -41 -70 -29 -86 hhcurveto
            -87 -70 29 46 -41 hvcurveto
            4 return
          </CharString>
          <CharString index="284">
            1451 rmoveto
            538 -92 0 57 -538 185 rlineto
            -444 vmoveto
            538 114 -538 hlineto
            return
          </CharString>
          <CharString index="285">
            -57 hlineto
            -89 -4 -23 -30 -41 hhcurveto
            -27 -23 12 24 -33 hvcurveto
            -28 20 rlineto
            34 -49 -41 22 -53 hhcurveto
            -92 return
          </CharString>
          <CharString index="286">
            -35 -52 -57 -46 -49 -89 -60 hvcurveto
            66 hlineto
            175 70 63 67 84 vvcurveto
            88 -78 61 -114 vhcurveto
            return
          </CharString>
          <CharString index="287">
            rmoveto
            158 139 82 152 111 -82 85 -130 16 hvcurveto
            112 17 75 65 86 vvcurveto
            return
          </CharString>
          <CharString index="288">
            1144 rmoveto
            190 102 141 145 19 -1 18 -3 18 hvcurveto
            72 callgsubr
            return
          </CharString>
          <CharString index="289">
            1 387 rlineto
            260 67 -260 203 hlineto
            -243 -29 rlineto
            -174 -127 vlineto
            endchar
          </CharString>
          <CharString index="290">
            1182 rmoveto
            69 55 52 67 68 -55 52 -69 -69 -56 -52 -68 -67 56 -52 69 hvcurveto
            return
          </CharString>
          <CharString index="291">
            -121 -121 -89 callgsubr
            -1 -17 -17 vvcurveto
            -126 93 -124 169 vhcurveto
            return
          </CharString>
          <CharString index="292">
            -51 hlineto
            -39 -204 -62 -43 -168 -8 rrcurveto
            -228 -8 541 877 rlineto
            49 vlineto
            return
          </CharString>
          <CharString index="293">
            -90 74 101 vhcurveto
            7 -62 vlineto
            -3 -18 -1 -18 -19 vvcurveto
            -145 102 -141 190 vhcurveto
            return
          </CharString>
          <CharString index="294">
            138 -424 vlineto
            142 106 rlineto
            190 135 76 82 104 vvcurveto
            117 -90 return
          </CharString>
          <CharString index="295">
            54 rmoveto
            -87 -50 109 238 235 46 90 85 88 49 -34 callgsubr
            return
          </CharString>
          <CharString index="296">
            23 30 41 hhcurveto
            27 23 -12 -23 33 hvcurveto
            28 -21 rlineto
            -35 49 42 -21 52 hhcurveto
            endchar
          </CharString>
          <CharString index="297">
            1489 rmoveto
            -107 -77 -53 -61 -38 hvcurveto
            -49 vlineto
            26 28 91 callgsubr
            return
          </CharString>
          <CharString index="298">
            494 109 180 37 33 103 17 rlinecurve
            54 -404 -54 vlineto
            144 -18 return
          </CharString>
          <CharString index="299">
            1836 rmoveto
            -211 -143 -210 143 -69 0 207 -279 return
          </CharString>
          <CharString index="300">
            1544 rmoveto
            325 274 rlineto
            6 -255 vlineto
            -137 -279 rlineto
            return
          </CharString>
          <CharString index="301">
            1489 rmoveto
            -107 -78 -53 -61 -38 hvcurveto
            -49 vlineto
            26 28 49 20 55 hhcurveto
            return
          </CharString>
          <CharString index="302">
            1451 -36 callgsubr
            -202 vmoveto
            538 114 -538 hlineto
            return
          </CharString>
          <CharString index="303">
            53 1218 rmoveto
            127 -1064 hlineto
            -67 -18 -18 -109 -15 vhcurveto
            -54 return
          </CharString>
          <CharString index="304">
            43 56 56 -43 46 -60 -61 -45 -45 -68 -121 115 -107 185 hvcurveto
            return
          </CharString>
          <CharString index="305">
            -224 83 -182 130 -129 vhcurveto
            -128 -144 52 -48 129 145 rlineto
            -105 131 167 -58 174 hhcurveto
            446 291 332 416 223 -83 183 -130 128 hvcurveto
            128 144 -51 48 -130 -145 rlineto
            106 -130 -167 57 -175 -77 callgsubr
            153 121 -89 -143 78 vhcurveto
            -717 -806 rlineto
            -44 108 -24 132 143 vvcurveto
            886 -30 rmoveto
            -7 callsubr
            -153 -121 89 144 -78 vhcurveto
            717 805 rlineto
            44 -108 24 -131 -144 vvcurveto
            endchar
          </CharString>
          <CharString index="306">
            rmoveto
            154 97 92 191 98 hvcurveto
            -201 46 67 -76 123 hhcurveto
            78 70 39 56 43 hvcurveto
            50 vlineto
            -12 -17 -24 -8 -25 hhcurveto
            -69 -50 56 273 -75 hvcurveto
            -10 38 233 509 rlineto
            -238 hlineto
            -21 -102 -28 -112 -31 -111 rrcurveto
            225 -66 -99 119 -202 hhcurveto
            -255 -167 -221 -294 -334 174 -177 194 hvcurveto
            -110 530 rmoveto
            255 71 163 120 113 51 -109 -248 45 vhcurveto
            38 -202 rlineto
            -181 -66 -69 -91 -104 hhcurveto
            -124 -75 166 247 hvcurveto
            endchar
          </CharString>
          <CharString index="307">
            rmoveto
            296 228 211 305 147 -52 123 -85 88 hvcurveto
            90 97 -50 47 -91 -99 rlineto
            67 -88 -113 38 -126 hhcurveto
            -296 -227 -210 -305 -148 52 -124 87 -89 hvcurveto
            -85 -93 48 -46 88 95 rlineto
            -67 87 113 -37 124 hhcurveto
            -259 523 rmoveto
            264 95 166 164 93 76 -60 -104 47 vhcurveto
            -447 -485 rlineto
            -18 63 -10 74 82 vvcurveto
            269 -451 rmoveto
            -93 -75 59 102 -47 hvcurveto
            447 484 rlineto
            17 -62 10 -72 -81 vvcurveto
            -263 -96 -167 -163 vhcurveto
            endchar
          </CharString>
          <CharString index="308">
            rmoveto
            -281 140 -159 191 170 114 133 161 39 vhcurveto
            28 -165 106 -130 189 1 rrcurveto
            220 160 211 322 289 -122 204 -146 -95 -58 -86 -113 35 hvcurveto
            161 -38 120 -168 -206 vvcurveto
            -174 -78 -107 -122 -136 -78 127 281 vhcurveto
            193 -222 -194 vlineto
            -298 -69 -108 -114 -115 -65 115 223 235 72 184 129 96 vhcurveto
            -33 36 rlineto
            -260 -79 -161 -230 -275 vvcurveto
            endchar
          </CharString>
          <CharString index="309">
            rmoveto
            227 158 90 125 79 hvcurveto
            53 vlineto
            -71 -64 -125 -47 -149 -1 rrcurveto
            -159 -100 57 100 100 95 61 199 hvcurveto
            91 hlineto
            -30 162 rlineto
            -46 hlineto
            -226 -95 55 104 93 82 65 161 87 73 -14 -29 52 hvcurveto
            -43 -13 -34 -39 -52 vvcurveto
            -56 43 -55 71 63 51 50 66 120 -124 95 -267 -293 -141 -122 -157 -149 132 -98 210 -5 vhcurveto
            -235 -7 -130 -86 -139 vvcurveto
            -161 155 -102 239 vhcurveto
            endchar
          </CharString>
          <CharString index="310">
            rmoveto
            -82 65 -62 91 153 97 119 254 130 vhcurveto
            443 868 66 131 29 23 122 19 rlinecurve
            54 -423 -54 vlineto
            169 -21 9 -16 -64 -137 rrcurveto
            -300 -626 -331 639 -64 124 4 20 166 17 rlinecurve
            54 -601 -54 vlineto
            115 -18 28 -22 61 -113 rrcurveto
            485 -902 -63 -126 -52 -83 -60 -46 rlinecurve
            3 11 1 11 12 vvcurveto
            79 -62 66 -77 -78 -62 -62 -77 vhcurveto
            endchar
          </CharString>
          <CharString index="311">
            rmoveto
            90 74 40 54 32 hvcurveto
            -1 53 rlineto
            -18 -16 -28 -11 -34 hhcurveto
            -73 -60 85 122 48 11 51 20 41 hvcurveto
            269 25 200 204 285 vvcurveto
            -103 callsubr
            -304 219 -202 289 -4 vhcurveto
            -90 -82 -53 -95 -97 vvcurveto
            -116 90 -72 105 vhcurveto
            -33 536 rmoveto
            -158 -108 176 274 263 94 166 162 158 107 -176 -274 -264 -93 -165 -162 hvcurveto
            endchar
          </CharString>
          <CharString index="312">
            -451 338 -284 380 -10 vhcurveto
            -93 -76 -61 -96 -97 vvcurveto
            -115 87 -74 114 86 73 40 59 30 vhcurveto
            53 vlineto
            -18 -17 -29 -14 -34 hhcurveto
            -74 -57 79 105 59 15 57 25 39 hvcurveto
            420 21 272 324 402 vvcurveto
            -105 callsubr
            -388 76 callsubr
            70 callsubr
            280 173 -297 -388 -7 callsubr
            -281 -172 298 387 vhcurveto
            endchar
          </CharString>
          <CharString index="313">
            215 -110 164 -171 72 hvcurveto
            -10 43 47 -6 49 hhcurveto
            157 103 63 105 89 -65 84 -91 44 hvcurveto
            -54 hlineto
            20 -26 16 -55 -53 vvcurveto
            -115 -82 -80 -147 vhcurveto
            -78 -62 18 -107 hhcurveto
            -285 -227 -215 -301 -309 214 -201 303 hvcurveto
            10 74 rmoveto
            -162 -104 177 271 267 90 164 166 162 103 -177 -271 -268 -90 -163 -165 hvcurveto
            return
          </CharString>
          <CharString index="314">
            251 hlineto
            92 -6 666 -1 vvcurveto
            76 29 69 46 97 hhcurveto
            141 69 -79 -237 -278 -6 -353 -10 -392 hvcurveto
            252 hlineto
            -3 1079 rlineto
            293 -1 -143 94 -192 hhcurveto
            -161 -112 -83 -110 -39 hvcurveto
            121 -11 -73 65 -111 hhcurveto
            -81 -71 -34 -41 -40 hvcurveto
            -54 vlineto
            8 12 19 6 25 hhcurveto
            77 39 -45 -129 -2 hvcurveto
            -68 -14 -523 -4 -119 vhcurveto
            endchar
          </CharString>
          <CharString index="315">
            373 43 0 48 -66 18 rlineto
            -58 17 -8 13 57 vvcurveto
            768 vlineto
            -2 14 16 -1 17 hhcurveto
            107 79 51 99 hvcurveto
            1 86 -68 88 -93 42 rrcurveto
            -54 hlineto
            20 -25 16 -53 -54 vvcurveto
            -121 -82 -78 -232 -21 vhcurveto
            -115 -10 0 -48 63 -18 rlineto
            59 -17 8 -13 -56 vvcurveto
            -595 vlineto
            -62 -37 -70 -45 -95 hhcurveto
            -135 -76 80 158 hvcurveto
            return
          </CharString>
          <CharString index="316">
            589 vlineto
            339 300 134 282 hvcurveto
            -340 660 rmoveto
            -181 -110 -101 -199 -1 vhcurveto
            -165 -1 0 589 115 -3 rlineto
            257 -8 102 -120 -174 vvcurveto
            58 -676 rmoveto
            -214 -155 -112 -262 -8 vhcurveto
            -115 -3 0 667 165 -2 rlineto
            237 -2 130 -127 -199 vvcurveto
            return
          </CharString>
          <CharString index="317">
            rmoveto
            744 vlineto
            260 -10 0 89 -260 -10 rlineto
            225 vlineto
            158 51 63 85 10 9 -1 -2 10 vhcurveto
            -29 -16 -19 -32 -37 vvcurveto
            -58 44 -44 57 56 45 44 58 91 -78 71 -151 -191 -142 -126 -244 vhcurveto
            -141 vlineto
            -127 -46 rlineto
            -42 126 -746 vlineto
            98 callsubr
            -10 callsubr
            endchar
          </CharString>
          <CharString index="318">
            312 679 rmoveto
            158 139 82 151 111 -82 86 -130 15 hvcurveto
            112 18 75 64 87 vvcurveto
            -69 callgsubr
            -18 rlineto
            68 31 63 36 77 hhcurveto
            80 49 -43 -66 -76 -71 -50 -156 -19 hvcurveto
            -44 vlineto
            3 14 22 2 19 hhcurveto
            110 78 -63 -105 6 callgsubr
            -87 100 -72 142 vhcurveto
            return
          </CharString>
          <CharString index="319">
            rmoveto
            322 vlineto
            118 -1 289 -470 rlineto
            317 51 hlineto
            -66 16 -41 42 -92 149 rrcurveto
            -239 379 87 94 154 156 47 26 102 19 rlinecurve
            55 -392 -55 vlineto
            119 -18 10 -37 -91 -102 rrcurveto
            -207 -240 -115 -1 rlineto
            304 12 callsubr
            -101 callsubr
            endchar
          </CharString>
          <CharString index="320">
            8 648 2 144 19 33 126 16 rlinecurve
            55 -402 -54 vlineto
            137 -18 19 -32 2 -146 8 -631 rcurveline
            -302 3 -160 -170 -248 hhcurveto
            -235 -171 150 319 hvcurveto
            702 vlineto
            89 19 21 131 18 vhcurveto
            54 -556 -54 vlineto
            121 -17 21 -19 -86 vvcurveto
            return
          </CharString>
          <CharString index="321">
            rmoveto
            36 vlineto
            429 524 rlineto
            -560 vlineto
            -65 -14 -16 -101 -14 vhcurveto
            -54 485 54 vlineto
            -111 15 -16 18 67 vvcurveto
            678 vlineto
            68 16 17 111 15 vhcurveto
            55 -485 -55 vlineto
            101 -13 14 -16 -65 vvcurveto
            -36 vlineto
            -429 -524 rlineto
            560 12 callsubr
            -101 callsubr
            endchar
          </CharString>
          <CharString index="322">
            560 vlineto
            29 -2 26 -4 24 vhcurveto
            59 38 70 39 96 hhcurveto
            131 75 -63 callgsubr
            484 54 vlineto
            -109 15 -17 18 67 vvcurveto
            536 vlineto
            209 -134 107 -197 -155 -124 -76 -104 -54 vhcurveto
            117 -40 -115 63 -153 hhcurveto
            -156 -117 -76 -102 -53 hvcurveto
            return
          </CharString>
          <CharString index="323">
            431 -1190 162 0 423 1158 68 187 30 33 113 16 rlinecurve
            54 -415 -54 vlineto
            148 -20 17 -39 -58 -173 rrcurveto
            -311 -918 -327 943 -52 150 23 39 138 18 rlinecurve
            54 -588 -54 vlineto
            108 -16 33 -33 57 -155 rrcurveto
            return
          </CharString>
          <CharString index="324">
            rmoveto
            283 224 204 310 313 -202 199 -300 -287 -224 -203 -311 -312 203 -200 303 hvcurveto
            6 74 rmoveto
            -159 -92 184 268 263 85 164 160 153 94 -184 -268 -263 -86 -164 -155 hvcurveto
            endchar
          </CharString>
          <CharString index="325">
            1262 -746 rmoveto
            15 404 rlineto
            -50 hlineto
            -59 -274 -91 -79 callgsubr
            -1068 vlineto
            -15 -363 rlineto
            49 hlineto
            52 225 68 54 317 12 rrcurveto
            298 9 -802 -1330 rlineto
            -51 vlineto
            -453 726 -57 callgsubr
            52 callgsubr
            endchar
          </CharString>
          <CharString index="326">
            307 -774 117 0 296 747 59 149 25 23 88 15 rlinecurve
            55 -350 -55 vlineto
            122 -14 19 -28 -46 -133 rrcurveto
            -184 -512 -188 515 -46 131 19 27 123 14 rlinecurve
            55 -522 -55 vlineto
            87 -17 26 -24 48 -119 rrcurveto
            return
          </CharString>
          <CharString index="327">
            -17 rlineto
            67 31 63 36 77 hhcurveto
            80 49 -42 -67 -76 -71 -50 -156 -19 hvcurveto
            -43 vlineto
            2 14 22 2 19 hhcurveto
            110 78 -63 -104 -98 -70 -58 -89 -44 -37 12 20 -27 hvcurveto
            33 7 25 29 35 vvcurveto
            42 -34 31 -41 -43 -33 -32 -43 -88 100 -72 142 vhcurveto
            endchar
          </CharString>
          <CharString index="328">
            vlineto
            127 -91 56 -151 -147 -99 -59 -74 -43 34 -30 45 45 33 33 42 29 -15 23 -23 12 vhcurveto
            8 21 25 4 25 hhcurveto
            82 50 -36 -91 hvcurveto
            -45 vlineto
            -116 -23 rlineto
            -165 -34 -62 -55 -79 vvcurveto
            -76 66 -53 97 vhcurveto
            4 return
          </CharString>
          <CharString index="329">
            1370 1286 416 rmoveto
            226 -192 124 -280 16 vhcurveto
            218 18 185 105 194 vvcurveto
            224 -214 121 -356 vhcurveto
            -589 -62 callsubr
            -106 callsubr
            209 callsubr
            return
          </CharString>
          <CharString index="330">
            -297 200 -197 265 -15 vhcurveto
            -117 -149 -102 callgsubr
            51 -28 -52 -52 -49 -30 -63 -49 -53 16 21 -29 hvcurveto
            -53 vlineto
            -46 36 75 -31 90 hhcurveto
            endchar
          </CharString>
          <CharString index="331">
            1965 rmoveto
            -80 -60 -30 -32 -34 hvcurveto
            -39 vlineto
            12 23 44 12 45 hhcurveto
            62 38 -22 -36 -35 -34 -23 -70 -16 hvcurveto
            49 -30 rlineto
            124 24 70 35 70 vvcurveto
            70 -83 40 -94 vhcurveto
            7 -429 36 callsubr
            return
          </CharString>
          <CharString index="332">
            502 vlineto
            225 -4 108 -3 26 -42 29 -158 rlinecurve
            47 476 -47 hlineto
            -32 -159 -25 -40 -106 -4 rrcurveto
            -225 -4 0 621 198 -7 257 -11 81 -55 52 -227 rlinecurve
            50 hlineto
            endchar
          </CharString>
          <CharString index="333">
            -478 rmoveto
            90 80 33 54 36 hvcurveto
            54 vlineto
            -22 -20 -35 -12 -40 hhcurveto
            -59 -52 41 82 87 53 84 147 109 hvcurveto
            -60 -1 rlineto
            -239 -122 -86 -111 -111 vvcurveto
            -103 81 -62 104 vhcurveto
            endchar
          </CharString>
          <CharString index="334">
            180 464 15 -537 rlineto
            -46 -11 -11 -68 -9 vhcurveto
            -39 342 39 vlineto
            -71 9 -11 12 47 vvcurveto
            -16 536 rlineto
            48 12 11 68 10 vhcurveto
            39 vlineto
            -282 1 -189 -543 rlineto
            return
          </CharString>
          <CharString index="335">
            -53 69 66 55 53 71 131 -123 94 -210 3 vhcurveto
            209 -51 -210 vlineto
            -273 -18 -206 -204 -293 vvcurveto
            -303 207 -200 272 -7 vhcurveto
            -209 vlineto
            endchar
          </CharString>
          <CharString index="336">
            1823 rmoveto
            127 vlineto
            -552 -157 rlineto
            -48 vlineto
            1 -247 rmoveto
            -104 callgsubr
            return
          </CharString>
          <CharString index="337">
            546 vlineto
            253 174 118 189 hvcurveto
            -494 228 rmoveto
            165 -4 81 -88 -146 vvcurveto
            -144 -101 -80 -146 -6 vhcurveto
            -108 -4 rlineto
            473 vlineto
            endchar
          </CharString>
          <CharString index="338">
            0 -158 1396 rmoveto
            53 42 40 53 52 -42 41 -53 hvcurveto
            -8 hlineto
            -53 -41 -41 -52 -53 41 -40 53 hvcurveto
            332 hmoveto
            53 41 40 53 52 -41 -66 callgsubr
            return
          </CharString>
          <CharString index="339">
            264 1475 rmoveto
            -71 -48 -52 -72 -1 hvcurveto
            -51 9 -34 26 -122 vhcurveto
            62 -278 45 0 62 278 rlineto
            27 121 8 35 51 vvcurveto
            72 -48 52 -71 vhcurveto
            return
          </CharString>
          <CharString index="340">
            1169 rmoveto
            98 77 75 199 -6 hvcurveto
            -62 hlineto
            -99 -4 -25 -33 -43 hhcurveto
            -30 -24 13 27 -36 hvcurveto
            -30 22 rlineto
            38 -53 -44 25 -57 hhcurveto
            -98 -76 -74 -200 return
          </CharString>
        <CharString name=".notdef">
          2048 145 -494 rmoveto
          120 2444 -120 hlineto
          -70 callgsubr
          409 -2444 rmoveto
          120 2444 -120 hlineto
          -70 callgsubr
          -70 callgsubr
          endchar
        </CharString>
        <CharString name=".null">
          0 endchar
        </CharString>
        <CharString name="A">
          1407 1219 258 -102 callsubr
        </CharString>
        <CharString name="AE">
          1936 1804 1444 150 callsubr
        </CharString>
        <CharString name="AEacute">
          1936 1199 -88 callsubr
          672 -101 150 callsubr
        </CharString>
        <CharString name="AEmacron">
          1936 981 -28 callsubr
          823 -283 150 callsubr
        </CharString>
        <CharString name="Aacute">
          1407 658 -88 callsubr
          628 -1287 -102 callsubr
        </CharString>
        <CharString name="Abreve">
          1407 700 -13 callsubr
          83 callsubr
          184 callsubr
          519 -1327 -102 callsubr
        </CharString>
        <CharString name="Abreveacute">
          1407 976 77 callgsubr
          276 -230 36 callsubr
          -7 hvcurveto
          -61 50 callsubr
          519 -1278 -102 callsubr
        </CharString>
        <CharString name="Abrevecyrillic">
          1407 700 63 callgsubr
          -60 -43 176 callsubr
          4 0 4 hhcurveto
          52 43 197 callsubr
          519 -1327 -102 callsubr
        </CharString>
        <CharString name="Abrevedotbelow">
          1407 700 -13 callsubr
          83 callsubr
          184 callsubr
          519 -1327 rmoveto
          -16 callsubr
          49 callsubr
          -180 -757 rmoveto
          -2 callsubr
          -78 callsubr
        </CharString>
        <CharString name="Abrevegrave">
          1407 425 58 callsubr
          275 -436 36 callsubr
          -7 hvcurveto
          -61 50 callsubr
          519 -1278 -102 callsubr
        </CharString>
        <CharString name="Abrevehookabove">
          1407 693 224 callsubr
          -7 hvcurveto
          -61 50 callsubr
          519 -1278 -102 callsubr
        </CharString>
        <CharString name="Abrevetilde">
          1407 818 1794 rmoveto
          93 66 54 86 callgsubr
          -32 11 rlineto
          13 -43 -42 -46 callsubr
          18 45 hhcurveto
          27 28 -6 -12 40 hvcurveto
          32 -10 rlineto
          -14 43 41 -9 48 hhcurveto
          -118 -258 36 callsubr
          -7 hvcurveto
          -61 50 callsubr
          519 -1278 -102 callsubr
        </CharString>
        <CharString name="Acaron">
          1407 923 -1 callsubr
          71 callsubr
          231 -1578 -102 callsubr
        </CharString>
        <CharString name="Acircumflex">
          1407 500 -69 callsubr
          -23 callsubr
          785 -1286 -102 callsubr
        </CharString>
        <CharString name="Acircumflexacute">
          1407 976 229 callsubr
          794 -1289 -102 callsubr
        </CharString>
        <CharString name="Acircumflexdotbelow">
          1407 500 -69 callsubr
          -23 callsubr
          785 -1286 rmoveto
          -16 callsubr
          49 callsubr
          -180 -757 rmoveto
          -2 callsubr
          -78 callsubr
        </CharString>
        <CharString name="Acircumflexgrave">
          1407 425 127 callsubr
          -104 callgsubr
          794 -1289 -102 callsubr
        </CharString>
        <CharString name="Acircumflexhookabove">
          1407 932 125 callsubr
          60 35 157 callsubr
          794 -1289 -102 callsubr
        </CharString>
        <CharString name="Acircumflextilde">
          1407 818 1772 rmoveto
          93 66 55 79 callsubr
          -19 -45 -100 callgsubr
          14 -43 -42 116 callsubr
          32 -9 rlineto
          -14 43 165 callsubr
          794 -1289 -102 callsubr
        </CharString>
        <CharString name="Acyrillic">
          1407 1219 258 -102 callsubr
        </CharString>
        <CharString name="Adblgrave">
          1407 508 138 callsubr
          -95 callgsubr
          308 -1285 -102 callsubr
        </CharString>
        <CharString name="Adieresis">
          1407 536 86 callsubr
          354 -1319 -102 callsubr
        </CharString>
        <CharString name="Adieresismacron">
          1407 424 1821 -19 callsubr
          46 callgsubr
          -39 -34 -44 -45 39 -34 51 hvcurveto
          314 hmoveto
          -42 callgsubr
          -91 callgsubr
          370 -1300 -102 callsubr
        </CharString>
        <CharString name="Adotaccent">
          1407 700 15 callsubr
          28 callsubr
          519 -1318 -102 callsubr
        </CharString>
        <CharString name="Adotbelow">
          1407 1219 258 rmoveto
          -16 callsubr
          49 callsubr
          -180 -757 rmoveto
          -2 callsubr
          -78 callsubr
        </CharString>
        <CharString name="Adotmacron">
          1407 424 1797 -19 callsubr
          276 -342 rmoveto
          55 42 37 48 48 -42 37 -55 -54 -43 -37 -48 -48 42 -37 55 hvcurveto
          519 -1294 -102 callsubr
        </CharString>
        <CharString name="Agrave">
          1407 763 -81 callgsubr
          783 -1559 -102 callsubr
        </CharString>
        <CharString name="Ahookabove">
          1407 726 1869 rmoveto
          -94 -69 -44 -52 -33 hvcurveto
          -42 vlineto
          22 26 43 17 50 hhcurveto
          62 34 callgsubr
          -68 52 -102 vhcurveto
          493 -1611 -102 callsubr
        </CharString>
        <CharString name="Ainvertedbreve">
          1407 700 119 callsubr
          88 callgsubr
          519 -1626 -102 callsubr
        </CharString>
        <CharString name="Alphagreek">
          1407 1219 258 -102 callsubr
        </CharString>
        <CharString name="Alphatonosgreek">
          1407 1219 258 rmoveto
          -16 callsubr
          589 54 vlineto
          -109 16 -33 33 -57 155 rrcurveto
          -976 821 13 callsubr
          219 -505 rmoveto
          214 629 219 -629 rlineto
          endchar
        </CharString>
        <CharString name="Amacron">
          1407 440 -28 callsubr
          779 -1469 -102 callsubr
        </CharString>
        <CharString name="Aogonek">
          1407 1142 37 callgsubr
          -73 -59 82 109 68 18 63 28 40 hvcurveto
          252 54 hlineto
          -109 16 -33 33 -57 155 rrcurveto
          -16 callsubr
          280 vlineto
          -100 -79 -67 -105 -108 vvcurveto
          -116 86 -74 114 vhcurveto
          -746 1056 rmoveto
          214 629 219 -629 rlineto
          endchar
        </CharString>
        <CharString name="Aring">
          1407 458 1733 35 callgsubr
          -133 -109 8 callgsubr
          610 -1475 -102 callsubr
        </CharString>
        <CharString name="Aringacute">
          1407 976 1828 rmoveto
          128 vlineto
          -552 -158 rlineto
          -48 vlineto
          304 -225 rmoveto
          124 81 38 58 58 -81 0 callgsubr
          25 21 42 hvcurveto
          42 hlineto
          43 23 -21 -32 -32 -23 -21 -43 hvcurveto
          498 -1310 -102 callsubr
        </CharString>
        <CharString name="Aringbelow">
          1407 1219 258 rmoveto
          -16 callsubr
          49 callsubr
          -448 -865 rmoveto
          -109 120 -68 148 147 120 68 109 107 -119 70 -148 -149 -119 -69 -108 vhcurveto
          167 hmoveto
          71 41 50 60 59 41 -50 -71 -73 -41 -48 -59 -60 -41 49 72 vhcurveto
          endchar
        </CharString>
        <CharString name="Atilde">
          1407 814 128 callsubr
          -40 hhcurveto
          -28 -24 12 24 53 callsubr
          405 -1303 -102 callsubr
        </CharString>
        <CharString name="B">
          1370 1286 416 105 callsubr
        </CharString>
        <CharString name="Bdotaccent">
          1370 684 139 callsubr
          602 -1160 105 callsubr
        </CharString>
        <CharString name="Bdotbelow">
          222 callsubr
          -319 -583 rmoveto
          -2 callsubr
          -78 callsubr
        </CharString>
        <CharString name="Becyrillic">
          1308 1239 417 rmoveto
          248 -207 157 -383 vhcurveto
          -177 559 hlineto
          205 -6 266 -9 74 -45 52 -227 rlinecurve
          50 hlineto
          -13 350 rlineto
          -1048 26 callsubr
          -1080 -26 callsubr
          592 vlineto
          369 220 162 255 hvcurveto
          -283 -5 rmoveto
          -209 -118 -126 -253 -9 vhcurveto
          -113 -4 0 692 113 -4 rlineto
          249 -9 122 -127 -204 vvcurveto
          endchar
        </CharString>
        <CharString name="Betagreek">
          1370 1286 416 105 callsubr
        </CharString>
        <CharString name="Blinebelow">
          222 callsubr
          -588 -753 -77 callsubr
        </CharString>
        <CharString name="C">
          1421 94 728 -14 callsubr
          -32 callsubr
        </CharString>
        <CharString name="Cacute">
          1421 804 -88 callsubr
          -643 -817 -14 callsubr
          -32 callsubr
        </CharString>
        <CharString name="Ccaron">
          1421 1069 -1 callsubr
          71 callsubr
          -1040 -1108 -14 callsubr
          -32 callsubr
        </CharString>
        <CharString name="Ccedilla">
          1421 94 728 rmoveto
          -453 318 -283 409 -16 vhcurveto
          -113 -144 168 callsubr
          -96 callgsubr
          22 callsubr
          64 85 rlineto
          189 6 168 52 74 54 12 343 rcurveline
          -52 callgsubr
          -32 callsubr
        </CharString>
        <CharString name="Ccedillaacute">
          1421 804 -88 callsubr
          -643 -817 rmoveto
          -453 318 -283 409 -16 vhcurveto
          -113 -144 168 callsubr
          -96 callgsubr
          22 callsubr
          64 85 rlineto
          189 6 168 52 74 54 12 343 rcurveline
          -52 callgsubr
          -32 callsubr
        </CharString>
        <CharString name="Ccircumflex">
          1421 646 -69 callsubr
          -23 callsubr
          -486 -816 -14 callsubr
          -32 callsubr
        </CharString>
        <CharString name="Cdotaccent">
          1421 846 15 callsubr
          28 callsubr
          -752 -848 -14 callsubr
          -32 callsubr
        </CharString>
        <CharString name="Checyrillic">
          1548 1341 -63 callsubr
          38 callsubr
          -555 -54 vlineto
          123 -17 18 -19 -86 vvcurveto
          -560 vlineto
          -34 -81 -97 -18 -111 hhcurveto
          -233 -105 124 248 hvcurveto
          240 vlineto
          86 18 19 123 17 vhcurveto
          54 -547 -54 vlineto
          123 -17 18 -19 -86 vvcurveto
          -235 vlineto
          -315 204 -150 321 147 130 30 43 90 vhcurveto
          -446 vlineto
          -97 -21 -27 -141 -17 vhcurveto
          -54 576 -29 callgsubr
        </CharString>
        <CharString name="Chigreek">
          1383 283 292 41 callsubr
        </CharString>
        <CharString name="D">
          1556 21 callsubr
          endchar
        </CharString>
        <CharString name="Dbar">
          1556 58 706 rmoveto
          150 -524 hlineto
          -89 -19 -21 -131 -18 vhcurveto
          -54 562 vlineto
          460 392 270 476 449 -353 249 -504 hvcurveto
          -557 -62 callsubr
          -488 -150 vlineto
          1121 -48 -57 callgsubr
          rlineto
          643 303 68 -303 607 vlineto
          105 -3 379 -12 224 -253 -1 -387 rlinecurve
          endchar
        </CharString>
        <CharString name="Dcaron">
          1556 965 192 callsubr
          91 callsubr
          441 -1090 126 callsubr
          endchar
        </CharString>
        <CharString name="Dcircumflexbelow">
          1556 21 callsubr
          -671 -1181 -76 callgsubr
        </CharString>
        <CharString name="Dcommaaccent">
          1556 21 callsubr
          -468 -1190 -40 callsubr
          -118 -80 -60 -35 -38 -28 hvcurveto
          -48 vlineto
          8 18 24 callsubr
          -47 -28 -65 -55 -37 callgsubr
          87 hhcurveto
          endchar
        </CharString>
        <CharString name="Ddotaccent">
          1556 743 -61 callgsubr
          97 callsubr
          729 -830 126 callsubr
          endchar
        </CharString>
        <CharString name="Ddotbelow">
          1556 21 callsubr
          -458 -909 -80 callsubr
          -78 callsubr
        </CharString>
        <CharString name="Decyrillic">
          1481 1430 69 rmoveto
          -188 1179 hlineto
          98 20 27 141 17 vhcurveto
          54 -1202 -54 vlineto
          147 -19 40 -32 -4 -143 rrcurveto
          -9 -223 -12 -409 -50 -314 -135 -181 rlinecurve
          -151 hlineto
          -8 -398 rlineto
          59 hlineto
          280 66 85 49 251 hhcurveto
          501 hlineto
          259 75 -61 -268 64 hvcurveto
          59 hlineto
          -461 398 rmoveto
          -698 hlineto
          120 182 50 297 12 425 12 402 rcurveline
          504 hlineto
          endchar
        </CharString>
        <CharString name="Deltagreek">
          1307 45 hmoveto
          1217 131 hlineto
          -528 1317 -160 0 -529 -1316 rlineto
          105 43 rmoveto
          418 1046 399 -1046 rlineto
          endchar
        </CharString>
        <CharString name="Djecyrillic">
          1712 -43 callsubr
          -16 callgsubr
          491 vlineto
          36 61 86 21 95 hhcurveto
          210 131 -147 -280 2 hvcurveto
          1 -276 -108 -237 -197 -130 28 -45 rcurveline
          322 140 219 252 319 vvcurveto
          327 -214 171 -293 -150 -119 -36 -47 -74 vhcurveto
          634 76 callgsubr
        </CharString>
        <CharString name="Dlinebelow">
          1556 21 callsubr
          -727 -1079 -77 callsubr
        </CharString>
        <CharString name="Dzecyrillic">
          1193 576 -24 99 callsubr
          endchar
        </CharString>
        <CharString name="Dzhecyrillic">
          1610 1402 1262 rmoveto
          89 -38 callsubr
          -555 -54 vlineto
          121 -17 21 -19 -86 vvcurveto
          -1200 -666 1200 vlineto
          86 21 19 121 17 vhcurveto
          54 -556 -54 vlineto
          -84 callsubr
          -106 callsubr
          539 vlineto
          111 23 -33 -287 45 hvcurveto
          59 hlineto
          287 44 24 33 110 hhcurveto
          538 54 hlineto
          -129 18 -20 21 89 vvcurveto
          endchar
        </CharString>
        <CharString name="E">
          1258 1130 1444 -92 callsubr
        </CharString>
        <CharString name="Eacute">
          1258 609 -47 callgsubr
          589 -101 -92 callsubr
        </CharString>
        <CharString name="Ebreve">
          1258 650 -13 callsubr
          -2 15 hvcurveto
          -57 -24 callgsubr
          480 -141 -92 callsubr
        </CharString>
        <CharString name="Ecaron">
          1258 873 68 callsubr
          136 callsubr
          192 -392 -92 callsubr
        </CharString>
        <CharString name="Ecedilla">
          1258 621 -464 rmoveto
          -31 callgsubr
          78 103 rlineto
          6 481 vlineto
          17 404 rlineto
          -51 hlineto
          -35 callsubr
          -14 363 rlineto
          -29 callsubr
          571 vlineto
          -131 -168 -102 callgsubr
          82 callsubr
          14 callsubr
          endchar
        </CharString>
        <CharString name="Ecedillabreve">
          1258 650 -13 callsubr
          -2 15 hvcurveto
          -57 -24 callgsubr
          -29 -2049 rmoveto
          -31 callgsubr
          78 103 rlineto
          6 481 vlineto
          17 404 rlineto
          -51 hlineto
          -35 callsubr
          -14 363 rlineto
          -29 callsubr
          571 vlineto
          -131 -168 -102 callgsubr
          82 callsubr
          14 callsubr
          endchar
        </CharString>
        <CharString name="Ecircumflex">
          1258 450 -69 callsubr
          -6 callsubr
          745 -100 -92 callsubr
        </CharString>
        <CharString name="Ecircumflexacute">
          1258 926 1823 148 callsubr
          -247 vmoveto
          276 88 275 64 callsubr
          755 -103 -92 callsubr
        </CharString>
        <CharString name="Ecircumflexbelow">
          1258 1130 1444 rmoveto
          -29 callsubr
          23 callsubr
          -35 callsubr
          -707 -1536 rmoveto
          213 174 211 -174 65 -64 callgsubr
        </CharString>
        <CharString name="Ecircumflexdotbelow">
          1258 450 -69 callsubr
          -6 callsubr
          745 -100 rmoveto
          -29 callsubr
          23 callsubr
          -35 callsubr
          -494 -1264 -80 callsubr
          -78 callsubr
        </CharString>
        <CharString name="Ecircumflexgrave">
          1258 375 127 callsubr
          276 88 275 64 callsubr
          755 -103 -92 callsubr
        </CharString>
        <CharString name="Ecircumflexhookabove">
          1258 882 125 callsubr
          60 35 -22 -35 -35 -32 -23 -67 -17 hvcurveto
          47 -30 rlineto
          119 24 67 36 70 vvcurveto
          70 -81 40 -90 vhcurveto
          -507 -419 rmoveto
          276 88 275 64 callsubr
          755 -103 -92 callsubr
        </CharString>
        <CharString name="Ecircumflextilde">
          1258 768 1772 rmoveto
          94 65 55 86 callgsubr
          -31 10 rlineto
          14 -44 -42 116 callsubr
          32 -9 rlineto
          -14 43 42 -10 47 hhcurveto
          -393 -274 rmoveto
          276 88 275 64 callsubr
          755 -103 -92 callsubr
        </CharString>
        <CharString name="Ecyrillic">
          1442 94 728 -14 callsubr
          -292 -178 291 361 -13 hvcurveto
          677 -10 0 88 -678 -10 rlineto
          374 8 177 246 295 hhcurveto
          -14 callgsubr
        </CharString>
        <CharString name="Edblgrave">
          1258 458 -9 callgsubr
          269 -99 -92 callsubr
        </CharString>
        <CharString name="Edieresis">
          1258 487 112 callsubr
          48 47 60 60 -48 46 -22 callgsubr
          315 -133 -92 callsubr
        </CharString>
        <CharString name="Edotaccent">
          1258 650 -49 callsubr
          480 -132 -92 callsubr
        </CharString>
        <CharString name="Edotbelow">
          1258 1130 1444 rmoveto
          -29 callsubr
          23 callsubr
          -35 callsubr
          -494 -1264 -80 callsubr
          -78 callsubr
        </CharString>
        <CharString name="Efcyrillic">
          1887 72 718 rmoveto
          -304 290 -187 457 -11 vhcurveto
          -45 vlineto
          -97 -21 -27 -140 -17 vhcurveto
          -54 572 54 vlineto
          -140 17 -21 27 97 vvcurveto
          45 vlineto
          469 11 277 187 307 vvcurveto
          299 -263 196 -483 12 vhcurveto
          45 vlineto
          97 21 27 140 17 vhcurveto
          54 -572 -54 vlineto
          140 -17 21 -27 -97 vvcurveto
          -45 vlineto
          -497 -12 -250 -196 -302 vvcurveto
          283 8 rmoveto
          222 126 194 338 16 vhcurveto
          -872 vlineto
          -320 17 -144 196 227 vvcurveto
          1178 -5 rmoveto
          -224 -137 -195 -327 -17 vhcurveto
          873 vlineto
          330 -17 134 -195 -225 vvcurveto
          endchar
        </CharString>
        <CharString name="Egrave">
          1258 714 -80 callgsubr
          744 -373 -92 callsubr
        </CharString>
        <CharString name="Ehookabove">
          1258 676 1869 rmoveto
          -94 -68 -44 -52 -34 hvcurveto
          1 -42 rlineto
          22 25 -67 callgsubr
          89 callgsubr
          454 -425 -92 callsubr
        </CharString>
        <CharString name="Einvertedbreve">
          1258 650 119 callsubr
          -1 callgsubr
          480 -440 -92 callsubr
        </CharString>
        <CharString name="Elcyrillic">
          1484 18 callgsubr
          497 -1193 hlineto
          -90 -21 -21 -128 -17 vhcurveto
          -54 563 54 vlineto
          -128 17 -21 21 90 vvcurveto
          1080 vlineto
          90 21 21 128 17 vhcurveto
          54 -1183 42 callgsubr
          -270 -87 -128 rlinecurve
          70 -8 -59 56 -71 hhcurveto
          -80 -62 -63 -80 hvcurveto
          endchar
        </CharString>
        <CharString name="Emacron">
          1258 390 -28 callsubr
          740 -283 -92 callsubr
        </CharString>
        <CharString name="Emacronacute">
          1258 926 -74 callgsubr
          -1 -177 -19 callsubr
          756 -242 -92 callsubr
        </CharString>
        <CharString name="Emacrongrave">
          1258 375 58 callsubr
          -1 -383 -19 callsubr
          756 -242 -92 callsubr
        </CharString>
        <CharString name="Emcyrillic">
          1831 499 1444 43 callsubr
        </CharString>
        <CharString name="Encyrillic">
          -15 callsubr
          -64 callsubr
          -57 callsubr
          -73 callsubr
          -84 callsubr
          -106 callsubr
          -50 callsubr
        </CharString>
        <CharString name="Eogonek">
          1258 1003 37 callgsubr
          -74 -58 82 109 68 18 63 28 40 hvcurveto
          149 hlineto
          17 404 rlineto
          -51 hlineto
          -35 callsubr
          -14 363 rlineto
          -29 callsubr
          911 vlineto
          -99 -79 -67 -105 -108 vvcurveto
          -116 86 -74 114 vhcurveto
          endchar
        </CharString>
        <CharString name="Epsilongreek">
          1258 1130 1444 -92 callsubr
        </CharString>
        <CharString name="Epsilontonosgreek">
          1555 1426 1444 rmoveto
          -1071 26 callsubr
          -1080 -26 callsubr
          23 callsubr
          -56 -271 -77 -49 -290 -12 rrcurveto
          -247 -9 0 645 258 -4 109 -3 27 -43 29 -157 rlinecurve
          47 476 -47 hlineto
          -33 -158 -24 -41 -108 -3 rrcurveto
          -258 59 callgsubr
          50 hlineto
          -1372 -2 13 callsubr
          endchar
        </CharString>
        <CharString name="Ercyrillic">
          1322 1238 1024 45 callsubr
        </CharString>
        <CharString name="Ereversedcyrillic">
          1449 122 93 rmoveto
          -63 85 191 -54 186 hhcurveto
          438 332 288 475 448 -318 281 -447 -214 -163 -49 -60 -82 hvcurveto
          -12 -300 rlineto
          50 hlineto
          224 54 139 109 213 hhcurveto
          292 183 -241 -378 12 hvcurveto
          -672 9 0 -88 672 9 rlineto
          -367 -10 -184 -284 -298 hhcurveto
          -194 -158 87 253 -58 hvcurveto
          -51 hlineto
          endchar
        </CharString>
        <CharString name="Escyrillic">
          1421 94 728 -14 callsubr
          -32 callsubr
        </CharString>
        <CharString name="Etagreek">
          -15 callsubr
          -64 callsubr
          -57 callsubr
          -73 callsubr
          -84 callsubr
          -106 callsubr
          -50 callsubr
        </CharString>
        <CharString name="Etatonosgreek">
          1917 769 176 29 callsubr
          -19 53 callgsubr
          1080 vlineto
          90 21 21 128 17 vhcurveto
          54 -555 -54 vlineto
          123 -17 19 -19 -86 vvcurveto
          -57 callsubr
          120 17 vhcurveto
          55 -555 -90 callgsubr
          -1080 -26 callsubr
          555 54 vlineto
          -121 17 -20 19 86 vvcurveto
          -701 903 13 callsubr
          endchar
        </CharString>
        <CharString name="Etilde">
          1258 764 120 callsubr
          -24 12 24 -33 -78 callgsubr
          5 hvcurveto
          62 hlineto
          91 4 24 -40 callgsubr
          366 -117 -92 callsubr
        </CharString>
        <CharString name="Etildebelow">
          1258 1130 1444 rmoveto
          -29 callsubr
          23 callsubr
          -35 callsubr
          -383 -1491 -84 callgsubr
          178 callsubr
          -71 -66 -180 6 113 callsubr
        </CharString>
        <CharString name="F">
          1155 1097 1444 rmoveto
          -1039 -62 callsubr
          -106 callsubr
          -20 callsubr
          225 callsubr
        </CharString>
        <CharString name="Fdotaccent">
          1155 632 -49 callsubr
          465 -132 rmoveto
          -1039 -62 callsubr
          -106 callsubr
          -20 callsubr
          225 callsubr
        </CharString>
        <CharString name="G">
          1546 94 727 -17 callsubr
        </CharString>
        <CharString name="Gacute">
          1546 800 -88 callsubr
          -639 -818 -17 callsubr
        </CharString>
        <CharString name="Gammagreek">
          1146 1085 1444 rmoveto
          -1027 -62 callsubr
          -106 callsubr
          -20 callsubr
          1185 vlineto
          189 -6 259 -8 77 -52 50 -221 rlinecurve
          50 hlineto
          endchar
        </CharString>
        <CharString name="Gbreve">
          1546 842 -13 callsubr
          -2 15 hvcurveto
          -57 -24 callgsubr
          -748 -858 -17 callsubr
        </CharString>
        <CharString name="Gcaron">
          1546 1065 68 callsubr
          136 callsubr
          -1036 -1109 -17 callsubr
        </CharString>
        <CharString name="Gcircumflex">
          1546 642 -69 callsubr
          -141 0 -208 -279 rlineto
          -482 -817 -17 callsubr
        </CharString>
        <CharString name="Gcommaaccent">
          1546 94 727 rmoveto
          -460 330 -291 432 202 202 56 85 115 vhcurveto
          388 vlineto
          91 18 19 128 14 vhcurveto
          53 -543 -53 vlineto
          139 -14 18 -19 -91 vvcurveto
          -381 vlineto
          -44 -55 -94 -28 -113 hhcurveto
          -305 -179 313 382 387 178 258 305 221 140 -130 -238 55 hvcurveto
          50 hlineto
          -12 342 rlineto
          57 -81 -160 45 -229 hhcurveto
          -425 -337 -266 -475 hvcurveto
          747 -1191 -40 callsubr
          60 callsubr
          -65 callgsubr
          147 callsubr
        </CharString>
        <CharString name="Gdotaccent">
          1546 842 -49 callsubr
          -748 -849 -17 callsubr
        </CharString>
        <CharString name="Geacutecyrillic">
          1146 577 193 callsubr
          575 -101 rmoveto
          -1027 -62 callsubr
          -106 callsubr
          -20 callsubr
          27 callgsubr
        </CharString>
        <CharString name="Gecyrillic">
          1146 1085 1444 rmoveto
          -1027 -62 callsubr
          -106 callsubr
          -20 callsubr
          27 callgsubr
        </CharString>
        <CharString name="Germandbls">
          1461 472 hmoveto
          1381 vlineto
          205 -7 rlineto
          279 -11 115 -124 -159 vvcurveto
          -140 -83 -94 -160 -26 vhcurveto
          -158 vlineto
          211 -55 116 -131 -177 vvcurveto
          -158 -88 -91 -124 -137 -105 120 207 -37 vhcurveto
          -51 -324 hlineto
          -39 56 125 -38 152 hhcurveto
          216 215 137 259 226 -129 174 -215 65 hvcurveto
          163 18 125 101 157 vvcurveto
          201 -178 130 -394 vhcurveto
          -691 -54 hlineto
          131 -17 18 -21 -89 vvcurveto
          -1082 vlineto
          -89 -18 -21 -131 -17 vhcurveto
          -54 vlineto
          endchar
        </CharString>
        <CharString name="Geupturncyrillic">
          1117 1057 1376 rmoveto
          11 391 rlineto
          -58 hlineto
          -280 -79 -54 -43 -257 hhcurveto
          -562 -62 callsubr
          -106 callsubr
          -20 callsubr
          1180 vlineto
          endchar
        </CharString>
        <CharString name="Gmacron">
          1546 582 -28 callsubr
          -488 -1000 -17 callsubr
        </CharString>
        <CharString name="H">
          -15 callsubr
          -64 callsubr
          -57 callsubr
          -73 callsubr
          -84 callsubr
          -106 callsubr
          -50 callsubr
        </CharString>
        <CharString name="Hacyrillic">
          1383 283 292 41 callsubr
        </CharString>
        <CharString name="Hardsigncyrillic">
          1561 1480 175 callsubr
          -818 vlineto
          -12 -350 rlineto
          50 hlineto
          43 227 67 47 230 10 14 1 rcurveline
          -1185 vlineto
          -97 -21 -26 -139 -17 vhcurveto
          -54 618 vlineto
          371 202 190 251 hvcurveto
          -282 -8 rmoveto
          -216 -112 -140 -245 -9 vhcurveto
          -128 -4 0 734 120 -1 rlineto
          237 -3 128 -136 -225 vvcurveto
          endchar
        </CharString>
        <CharString name="Hbar">
          -15 callsubr
          866 149 68 -149 146 25 callgsubr
          -152 -676 152 -8 callsubr
          -84 callsubr
          -146 -150 -68 150 -866 vlineto
          -89 -19 -21 -131 -18 vhcurveto
          -54 -42 callsubr
          597 vmoveto
          275 676 -275 vlineto
          endchar
        </CharString>
        <CharString name="Hbrevebelow">
          -15 callsubr
          -64 callsubr
          -57 callsubr
          -73 callsubr
          -84 callsubr
          -106 callsubr
          -42 callsubr
          339 -620 rmoveto
          7 callgsubr
          -84 67 91 vhcurveto
          6 -58 62 callgsubr
        </CharString>
        <CharString name="Hcaron">
          1620 1034 1836 rmoveto
          -212 -144 -210 144 -68 0 207 -280 141 0 207 280 rlineto
          -627 -1660 29 callsubr
          -18 53 callgsubr
          -64 callsubr
          -57 callsubr
          -73 callsubr
          -84 callsubr
          -106 callsubr
          -50 callsubr
        </CharString>
        <CharString name="Hcedilla">
          -15 callsubr
          -64 callsubr
          -57 callsubr
          -73 callsubr
          -84 callsubr
          -106 callsubr
          252 vlineto
          -127 -168 rlineto
          -48 vlineto
          4 10 19 -26 callgsubr
          73 callgsubr
          119 111 63 116 111 -94 67 -115 -9 -9 -1 -1 -8 hvcurveto
          79 109 rlineto
          235 54 hlineto
          -121 17 -21 19 86 vvcurveto
          endchar
        </CharString>
        <CharString name="Hcircumflex">
          1620 611 -69 callsubr
          -6 callsubr
          -74 -1368 29 callsubr
          -18 53 callgsubr
          -64 callsubr
          -57 callsubr
          -73 callsubr
          -84 callsubr
          -106 callsubr
          -50 callsubr
        </CharString>
        <CharString name="Hdieresis">
          1620 647 86 callsubr
          -504 -1401 29 callsubr
          -18 53 callgsubr
          -64 callsubr
          -57 callsubr
          -73 callsubr
          -84 callsubr
          -106 callsubr
          -50 callsubr
        </CharString>
        <CharString name="Hdotaccent">
          1620 811 -49 callsubr
          -339 -1400 29 callsubr
          -18 53 callgsubr
          -64 callsubr
          -57 callsubr
          -73 callsubr
          -84 callsubr
          -106 callsubr
          -50 callsubr
        </CharString>
        <CharString name="Hdotbelow">
          -15 callsubr
          -64 callsubr
          -57 callsubr
          -73 callsubr
          -84 callsubr
          -106 callsubr
          -42 callsubr
          339 -359 -80 callsubr
          62 50 -86 callgsubr
        </CharString>
        <CharString name="I">
          680 472 -63 callsubr
          -38 callsubr
          -22 callsubr
          -94 callsubr
          -81 callsubr
        </CharString>
        <CharString name="IAcyrillic">
          1381 147 1034 rmoveto
          -200 140 -112 184 -40 vhcurveto
          -220 -363 -127 -207 -34 -40 -66 -21 rlinecurve
          -51 306 vlineto
          385 647 rlineto
          184 -471 hlineto
          -84 -18 -19 -123 -19 vhcurveto
          -54 555 54 vlineto
          -128 19 -22 21 88 vvcurveto
          1079 vlineto
          90 22 21 128 17 vhcurveto
          55 -603 vlineto
          -362 -201 -155 -255 hvcurveto
          272 12 rmoveto
          207 120 117 240 7 vhcurveto
          120 4 0 -672 -125 2 rlineto
          -212 3 -143 124 208 vvcurveto
          endchar
        </CharString>
        <CharString name="IJ">
          1360 472 -63 callsubr
          -38 callsubr
          -22 callsubr
          -94 callsubr
          19 callsubr
          680 75 158 callsubr
        </CharString>
        <CharString name="IJacute">
          1360 298 -88 callsubr
          747 -1 rmoveto
          324 142 callsubr
          -438 -1363 -79 callsubr
          -94 callsubr
          19 callsubr
          680 75 158 callsubr
        </CharString>
        <CharString name="IUcyrillic">
          2275 472 176 rmoveto
          528 246 vlineto
          -453 8 343 -275 380 hhcurveto
          442 289 328 420 1 hvcurveto
          463 1 -350 281 -383 hhcurveto
          -425 -282 -301 -394 -23 hvcurveto
          -247 495 hlineto
          85 21 19 -73 callsubr
          -84 callsubr
          -106 callsubr
          -42 callsubr
          988 -124 rmoveto
          -279 -172 294 391 377 124 278 305 278 174 -293 -392 -1 hvcurveto
          -376 -1 -124 -279 -304 hhcurveto
          endchar
        </CharString>
        <CharString name="Iacute">
          680 298 -88 callsubr
          241 -1363 -79 callsubr
          -94 callsubr
          -81 callsubr
        </CharString>
        <CharString name="Ibreve">
          680 340 -13 callsubr
          83 callsubr
          -122 -121 -81 66 91 vhcurveto
          6 -56 vlineto
          -3 -15 -1 -38 callgsubr
          132 -1403 -79 callsubr
          -94 callsubr
          -81 callsubr
        </CharString>
        <CharString name="Icaron">
          680 562 192 callsubr
          91 callsubr
          -156 -1654 -79 callsubr
          -94 callsubr
          -81 callsubr
        </CharString>
        <CharString name="Icircumflex">
          680 139 -56 callgsubr
          69 -25 callgsubr
          398 -1362 -79 callsubr
          -94 callsubr
          -81 callsubr
        </CharString>
        <CharString name="Icyrillic">
          680 472 -63 callsubr
          -38 callsubr
          -22 callsubr
          -94 callsubr
          -81 callsubr
        </CharString>
        <CharString name="Idblgrave">
          680 148 138 callsubr
          71 hlineto
          205 84 callgsubr
          -79 -1361 -79 callsubr
          -94 callsubr
          -81 callsubr
        </CharString>
        <CharString name="Idieresis">
          680 176 1577 rmoveto
          60 -41 callgsubr
          328 hmoveto
          56 callsubr
          -32 -1395 -79 callsubr
          -94 callsubr
          -81 callsubr
        </CharString>
        <CharString name="Idieresisacute">
          680 615 59 callsubr
          126 -208 rmoveto
          -42 callgsubr
          -91 callgsubr
          90 callsubr
          -17 -1376 -79 callsubr
          -94 callsubr
          -81 callsubr
        </CharString>
        <CharString name="Idotaccent">
          680 340 139 callsubr
          132 -1394 -79 callsubr
          -94 callsubr
          -81 callsubr
        </CharString>
        <CharString name="Idotbelow">
          680 472 -63 callsubr
          -38 callsubr
          -22 callsubr
          -94 callsubr
          19 callsubr
          -132 -365 -80 callsubr
          -78 callsubr
        </CharString>
        <CharString name="Iecyrillic">
          1258 1130 1444 -92 callsubr
        </CharString>
        <CharString name="Igrave">
          680 403 -82 callgsubr
          397 -1635 -79 callsubr
          -94 callsubr
          -81 callsubr
        </CharString>
        <CharString name="Ihookabove">
          680 366 1869 54 callsubr
          -69 52 -101 vhcurveto
          106 -1687 -79 callsubr
          -94 callsubr
          -81 callsubr
        </CharString>
        <CharString name="Iicyrillic">
          1642 472 176 rmoveto
          56 vlineto
          698 877 rlineto
          -933 vlineto
          -86 -18 53 callgsubr
          -64 callsubr
          -55 vlineto
          -698 -877 rlineto
          932 -8 callsubr
          -84 callsubr
          -106 callsubr
          -50 callsubr
        </CharString>
        <CharString name="Iinvertedbreve">
          680 339 1884 rmoveto
          -169 -93 -125 -126 -17 1 -17 3 -14 hvcurveto
          56 5 hlineto
          91 81 67 -54 callgsubr
          133 -1702 -79 callsubr
          -94 callsubr
          -81 callsubr
        </CharString>
        <CharString name="Iishortcyrillic">
          1642 821 63 callgsubr
          -61 -42 176 callsubr
          3 0 4 hhcurveto
          52 44 197 callsubr
          -349 -1409 rmoveto
          56 vlineto
          698 877 rlineto
          -933 vlineto
          -86 -18 53 callgsubr
          -64 callsubr
          -55 vlineto
          -698 -877 rlineto
          932 -8 callsubr
          -84 callsubr
          -106 callsubr
          -50 callsubr
        </CharString>
        <CharString name="Imacron">
          680 79 144 callsubr
          393 -1545 -79 callsubr
          -94 callsubr
          -81 callsubr
        </CharString>
        <CharString name="Iocyrillic">
          1258 487 112 callsubr
          48 47 60 60 -48 46 -22 callgsubr
          315 -133 -92 callsubr
        </CharString>
        <CharString name="Iogonek">
          680 472 -63 callsubr
          -38 callsubr
          -22 callsubr
          -94 callsubr
          268 vlineto
          -99 -79 -68 -105 -108 vvcurveto
          -116 88 -74 113 86 74 40 59 30 vhcurveto
          -1 53 rlineto
          -18 -16 -29 -14 -34 hhcurveto
          -74 -57 82 109 68 17 63 28 40 hvcurveto
          237 54 hlineto
          -129 18 -20 21 89 vvcurveto
          endchar
        </CharString>
        <CharString name="Iotadieresisgreek">
          680 176 1577 rmoveto
          60 -41 callgsubr
          328 hmoveto
          56 callsubr
          -32 -1395 -79 callsubr
          -94 callsubr
          -81 callsubr
        </CharString>
        <CharString name="Iotagreek">
          680 472 -63 callsubr
          -38 callsubr
          -22 callsubr
          -94 callsubr
          -81 callsubr
        </CharString>
        <CharString name="Iotatonosgreek">
          976 769 -63 callsubr
          38 callsubr
          -563 -90 callgsubr
          -1080 -26 callsubr
          563 54 vlineto
          -130 18 -19 21 89 vvcurveto
          -701 897 13 callsubr
          endchar
        </CharString>
        <CharString name="Itilde">
          680 454 128 callsubr
          -41 hhcurveto
          -28 -53 callgsubr
          -54 -50 callgsubr
          24 29 41 -51 callgsubr
          41 -23 55 hhcurveto
          18 -1379 -79 callsubr
          -94 callsubr
          -81 callsubr
        </CharString>
        <CharString name="Itildebelow">
          680 472 -63 callsubr
          -38 callsubr
          -22 callsubr
          -94 callsubr
          19 callsubr
          -21 -592 rmoveto
          92 70 67 179 -5 170 callsubr
          57 hlineto
          89 4 189 callsubr
        </CharString>
        <CharString name="J">
          680 472 257 rmoveto
          1005 48 callsubr
          87 callsubr
          121 callsubr
        </CharString>
        <CharString name="Jacute">
          680 298 193 callsubr
          241 -1288 rmoveto
          1005 48 callsubr
          87 callsubr
          121 callsubr
        </CharString>
        <CharString name="Jcircumflex">
          680 139 -69 callsubr
          -6 callsubr
          398 -1287 rmoveto
          1005 48 callsubr
          87 callsubr
          121 callsubr
        </CharString>
        <CharString name="Jecyrillic">
          680 472 257 rmoveto
          1005 48 callsubr
          87 callsubr
          121 callsubr
        </CharString>
        <CharString name="K">
          1389 472 176 3 callsubr
        </CharString>
        <CharString name="Kaacutecyrillic">
          1389 697 -88 callsubr
          -158 -1369 3 callsubr
        </CharString>
        <CharString name="Kacute">
          1389 697 -88 callsubr
          -158 -1369 3 callsubr
        </CharString>
        <CharString name="Kacyrillic">
          1389 472 176 3 callsubr
        </CharString>
        <CharString name="Kappagreek">
          1389 472 176 3 callsubr
        </CharString>
        <CharString name="Kcaron">
          1389 961 192 callsubr
          141 0 208 279 rlineto
          -555 -1660 3 callsubr
        </CharString>
        <CharString name="Kcommaaccent">
          153 callsubr
          278 -640 -40 callsubr
          69 callsubr
          24 callsubr
          111 callsubr
        </CharString>
        <CharString name="Kdotbelow">
          153 callsubr
          288 -359 -80 callsubr
          -78 callsubr
        </CharString>
        <CharString name="Klinebelow">
          153 callsubr
          19 -529 -77 callsubr
        </CharString>
        <CharString name="L">
          10 callsubr
          endchar
        </CharString>
        <CharString name="Lacute">
          1162 300 -88 callsubr
          869 -1545 rmoveto
          -12 callsubr
          9 callsubr
          endchar
        </CharString>
        <CharString name="Lambdagreek">
          1390 1199 256 rmoveto
          -423 1192 -161 0 -419 -1191 -57 -160 -39 -29 -104 -14 rlinecurve
          -54 413 54 vlineto
          -150 19 -15 41 49 151 rrcurveto
          309 936 322 -959 46 -139 -39 -32 -125 -17 rlinecurve
          -54 588 54 vlineto
          -98 14 -41 28 -56 160 rrcurveto
          endchar
        </CharString>
        <CharString name="Lcaron">
          1162 871 1117 rmoveto
          187 411 -196 0 -44 -411 rlineto
          284 -1117 rmoveto
          -12 callsubr
          9 callsubr
          endchar
        </CharString>
        <CharString name="Lcircumflexbelow">
          10 callsubr
          338 -455 11 callsubr
        </CharString>
        <CharString name="Lcommaaccent">
          10 callsubr
          542 -464 167 callsubr
        </CharString>
        <CharString name="Ldot">
          10 callsubr
          811 700 rmoveto
          73 59 55 71 73 -59 54 -73 -73 -59 -54 -73 -71 59 -55 73 hvcurveto
          endchar
        </CharString>
        <CharString name="Ldotbelow">
          10 callsubr
          551 -183 -80 callsubr
          63 49 -86 callgsubr
        </CharString>
        <CharString name="Ldotbelowmacron">
          1162 81 144 callsubr
          1021 -1727 rmoveto
          -12 callsubr
          9 callsubr
          551 -183 -80 callsubr
          63 49 -86 callgsubr
        </CharString>
        <CharString name="Ljecyrillic">
          2064 18 callgsubr
          436 -1193 hlineto
          -90 -21 -21 -128 -17 vhcurveto
          -54 608 vlineto
          371 202 190 251 273 -219 151 -363 hvcurveto
          -185 383 hlineto
          98 21 27 140 17 vhcurveto
          54 -1134 42 callgsubr
          -269 -87 -129 rlinecurve
          70 -8 -59 56 -71 hhcurveto
          -80 -62 -63 -80 hvcurveto
          1691 312 rmoveto
          -216 -111 -140 -245 -9 vhcurveto
          -128 -4 0 734 119 -1 rlineto
          238 -3 127 -136 -225 vvcurveto
          endchar
        </CharString>
        <CharString name="Llinebelow">
          10 callsubr
          282 -353 -77 callsubr
        </CharString>
        <CharString name="Lslash">
          1162 58 623 rmoveto
          150 43 rlineto
          -484 vlineto
          -89 -19 -21 -131 -18 vhcurveto
          -54 1044 vlineto
          -12 callsubr
          rrcurveto
          -186 -7 0 680 350 102 0 72 -350 -101 rlineto
          435 -20 callgsubr
          -523 vlineto
          -150 -43 rlineto
          endchar
        </CharString>
        <CharString name="M">
          1831 499 1444 43 callsubr
        </CharString>
        <CharString name="Macute">
          1831 871 193 callsubr
          -305 -101 43 callsubr
        </CharString>
        <CharString name="Mdotaccent">
          1831 913 139 callsubr
          -414 -132 43 callsubr
        </CharString>
        <CharString name="Mdotbelow">
          1831 499 1444 rmoveto
          -424 -54 hlineto
          117 -18 27 -32 -4 -106 rrcurveto
          -33 -991 -6 -140 -19 -32 -130 -17 rlinecurve
          -54 401 54 vlineto
          -132 18 -17 32 1 142 rrcurveto
          8 1018 480 -1264 122 0 82 252 376 1010 30 -1083 3 -89 -22 -21 -124 -15 rlinecurve
          -54 555 54 vlineto
          -129 16 -17 21 -3 91 rrcurveto
          -32 1080 -2 89 22 22 125 17 rlinecurve
          54 -432 vlineto
          -395 -1149 rlineto
          -98 -478 rmoveto
          -2 callsubr
          -78 callsubr
        </CharString>
        <CharString name="Mugreek">
          1831 499 1444 43 callsubr
        </CharString>
        <CharString name="N">
          1496 -41 callsubr
          endchar
        </CharString>
        <CharString name="Nacute">
          1496 731 -88 callsubr
          -219 -101 4 callsubr
          endchar
        </CharString>
        <CharString name="Ncaron">
          1496 996 -1 callsubr
          207 -279 91 callsubr
          -616 -392 4 callsubr
          endchar
        </CharString>
        <CharString name="Ncircumflexbelow">
          1496 -41 callsubr
          -713 -740 rmoveto
          213 174 211 -174 67 callgsubr
        </CharString>
        <CharString name="Ncommaaccent">
          1496 -41 callsubr
          -510 -749 -40 callsubr
          60 callsubr
          -65 callgsubr
          147 callsubr
        </CharString>
        <CharString name="Ndotaccent">
          1496 773 15 callsubr
          -63 97 callsubr
          -328 -132 4 callsubr
          endchar
        </CharString>
        <CharString name="Ndotbelow">
          1496 -41 callsubr
          -500 -468 66 callsubr
        </CharString>
        <CharString name="Ngrave">
          1496 836 1544 rmoveto
          67 hlineto
          -131 279 rlineto
          -263 -6 hlineto
          -64 -373 4 callsubr
          endchar
        </CharString>
        <CharString name="Njecyrillic">
          2155 472 176 rmoveto
          572 571 -572 vlineto
          -86 -20 -19 -121 -17 vhcurveto
          -54 599 vlineto
          372 201 179 237 258 -218 142 -364 hvcurveto
          -185 432 hlineto
          98 21 27 141 17 vhcurveto
          54 -567 -55 vlineto
          121 -17 20 -19 -85 vvcurveto
          -451 -571 451 -8 callsubr
          -84 callsubr
          -106 callsubr
          -42 callsubr
          1320 233 rmoveto
          -202 -111 -131 -245 -8 vhcurveto
          -129 -4 0 686 120 -2 rlineto
          237 -3 128 -127 -209 vvcurveto
          endchar
        </CharString>
        <CharString name="Nlinebelow">
          1496 -41 callsubr
          -769 -638 -77 callsubr
        </CharString>
        <CharString name="Ntilde">
          1496 887 -48 callgsubr
          53 callsubr
          -442 -117 4 callsubr
          endchar
        </CharString>
        <CharString name="Nugreek">
          1496 -41 callsubr
          endchar
        </CharString>
        <CharString name="O">
          0 callsubr
          57 callsubr
          -105 callsubr
          -100 callsubr
        </CharString>
        <CharString name="OE">
          2067 94 716 rmoveto
          -425 329 -315 419 vhcurveto
          150 101 24 144 hhcurveto
          749 hlineto
          16 404 rlineto
          -50 hlineto
          -56 -271 -75 -49 -287 -12 rrcurveto
          -242 -9 0 645 256 -4 108 -3 27 -43 28 -157 rlinecurve
          47 476 -47 hlineto
          -32 -158 -25 -41 -106 -3 rrcurveto
          -256 -4 0 610 217 -7 262 -12 81 -55 54 -226 rlinecurve
          50 hlineto
          -13 363 rlineto
          -704 hlineto
          -168 -68 24 -153 hhcurveto
          -457 -299 -328 -424 hvcurveto
          290 10 rmoveto
          381 163 287 320 61 56 -9 -21 44 vhcurveto
          -1288 vlineto
          -17 -47 -58 -8 -60 hhcurveto
          -298 -181 286 389 hvcurveto
          endchar
        </CharString>
        <CharString name="Oacute">
          1663 784 -88 callsubr
          -623 -824 -104 callsubr
          -105 callsubr
          -100 callsubr
        </CharString>
        <CharString name="Obreve">
          1663 826 -13 callsubr
          83 callsubr
          -122 -120 -89 callgsubr
          -2 -38 callgsubr
          -732 -864 -104 callsubr
          -105 callsubr
          -100 callsubr
        </CharString>
        <CharString name="Ocaron">
          1663 1049 -1 callsubr
          71 callsubr
          -1020 -1115 -104 callsubr
          -105 callsubr
          -100 callsubr
        </CharString>
        <CharString name="Ocircumflex">
          1663 626 -69 callsubr
          -23 callsubr
          -466 -823 -104 callsubr
          -105 callsubr
          -100 callsubr
        </CharString>
        <CharString name="Ocircumflexacute">
          1663 1102 229 callsubr
          -457 -826 -104 callsubr
          -105 callsubr
          -100 callsubr
        </CharString>
        <CharString name="Ocircumflexdotbelow">
          1663 626 -69 callsubr
          -23 callsubr
          -466 -823 -104 callsubr
          -105 callsubr
          -388 76 callsubr
          70 callsubr
          279 174 -297 -388 -7 callsubr
          -98 callgsubr
          449 -920 -80 callsubr
          93 callsubr
          hvcurveto
          endchar
        </CharString>
        <CharString name="Ocircumflexgrave">
          1663 551 127 callsubr
          -104 callgsubr
          -457 -826 -104 callsubr
          -105 callsubr
          -100 callsubr
        </CharString>
        <CharString name="Ocircumflexhookabove">
          1663 1058 125 callsubr
          60 35 157 callsubr
          -457 -826 -104 callsubr
          -105 callsubr
          -100 callsubr
        </CharString>
        <CharString name="Ocircumflextilde">
          1663 944 1772 rmoveto
          93 66 55 79 callsubr
          -19 -45 -100 callgsubr
          14 -43 -42 116 callsubr
          32 -9 rlineto
          -14 43 165 callsubr
          -457 -826 -104 callsubr
          -105 callsubr
          -100 callsubr
        </CharString>
        <CharString name="Ocyrillic">
          0 callsubr
          57 callsubr
          -105 callsubr
          -100 callsubr
        </CharString>
        <CharString name="Odblgrave">
          1663 634 138 callsubr
          -95 callgsubr
          -943 -822 -104 callsubr
          -105 callsubr
          -100 callsubr
        </CharString>
        <CharString name="Odieresis">
          1663 662 86 callsubr
          -897 -856 -104 callsubr
          -105 callsubr
          -100 callsubr
        </CharString>
        <CharString name="Odieresismacron">
          1663 550 1821 -19 callsubr
          46 callgsubr
          -40 -34 -44 143 callsubr
          44 -39 34 -51 hvcurveto
          -8 hlineto
          -91 callgsubr
          -881 -837 -104 callsubr
          -105 callsubr
          -100 callsubr
        </CharString>
        <CharString name="Odotaccent">
          1663 826 15 callsubr
          28 callsubr
          -732 -855 -104 callsubr
          -105 callsubr
          -100 callsubr
        </CharString>
        <CharString name="Odotaccentmacron">
          1663 550 1797 -19 callsubr
          11 callgsubr
          -732 -831 -104 callsubr
          -105 callsubr
          -100 callsubr
        </CharString>
        <CharString name="Odotbelow">
          0 callsubr
          57 callsubr
          -105 callsubr
          -388 76 callsubr
          70 callsubr
          279 174 -297 -388 -7 callsubr
          -98 callgsubr
          449 -920 -80 callsubr
          93 callsubr
          hvcurveto
          endchar
        </CharString>
        <CharString name="Ograve">
          1663 889 -81 callgsubr
          -468 -1096 -104 callsubr
          -105 callsubr
          -100 callsubr
        </CharString>
        <CharString name="Ohookabove">
          1663 852 1869 54 callsubr
          -68 52 -102 vhcurveto
          -758 -1148 -104 callsubr
          -105 callsubr
          -100 callsubr
        </CharString>
        <CharString name="Ohorn">
          1677 94 721 -104 callsubr
          44 callsubr
        </CharString>
        <CharString name="Ohornacute">
          1677 785 -88 callsubr
          -624 -824 -104 callsubr
          44 callsubr
        </CharString>
        <CharString name="Ohorndotbelow">
          1677 94 721 -104 callsubr
          318 -171 239 -240 114 vhcurveto
          -6 31 34 -4 34 hhcurveto
          173 119 60 124 hvcurveto
          1 92 -68 85 -93 44 rrcurveto
          -54 hlineto
          21 -26 16 -56 -52 vvcurveto
          -124 -80 -87 -158 vhcurveto
          -89 -93 23 -121 -77 callgsubr
          279 174 -297 -388 -7 callsubr
          -98 callgsubr
          446 -920 -80 callsubr
          -78 callsubr
        </CharString>
        <CharString name="Ohorngrave">
          1677 890 -81 callgsubr
          -469 -1096 -104 callsubr
          44 callsubr
        </CharString>
        <CharString name="Ohornhookabove">
          1677 853 1869 54 callsubr
          -68 52 -102 vhcurveto
          -759 -1148 -104 callsubr
          44 callsubr
        </CharString>
        <CharString name="Ohorntilde">
          1677 941 -48 callgsubr
          53 callsubr
          -847 -840 -104 callsubr
          44 callsubr
        </CharString>
        <CharString name="Ohungarumlaut">
          1663 704 1824 24 callgsubr
          -1177 -1103 -104 callsubr
          -105 callsubr
          -100 callsubr
        </CharString>
        <CharString name="Oinvertedbreve">
          1663 825 1884 rmoveto
          -169 -93 -125 -126 -17 2 -17 2 -14 hvcurveto
          57 5 hlineto
          91 80 67 -54 callgsubr
          -731 -1163 -104 callsubr
          -105 callsubr
          -100 callsubr
        </CharString>
        <CharString name="Omacron">
          1663 566 -28 callsubr
          -472 -1006 -104 callsubr
          -105 callsubr
          -100 callsubr
        </CharString>
        <CharString name="Omacronacute">
          1663 1102 77 callgsubr
          -177 vmoveto
          552 97 -552 hlineto
          -456 -965 -104 callsubr
          -105 callsubr
          -100 callsubr
        </CharString>
        <CharString name="Omacrongrave">
          1663 551 58 callsubr
          -1 -383 -19 callsubr
          -456 -965 -104 callsubr
          -105 callsubr
          -100 callsubr
        </CharString>
        <CharString name="Omegagreek">
          1580 84 hmoveto
          601 304 hlineto
          -230 41 callgsubr
          166 -221 -329 -270 -120 -202 -224 -66 vhcurveto
          -304 601 vlineto
          48 369 rlineto
          -43 hlineto
          -70 -169 -149 -4 callgsubr
          -285 -272 -353 1 vhcurveto
          -309 224 -223 329 -46 vhcurveto
          -108 vlineto
          -312 2 -154 39 -75 171 rrcurveto
          -44 hlineto
          endchar
        </CharString>
        <CharString name="Omegatonosgreek">
          1710 214 hmoveto
          602 304 hlineto
          -231 41 callgsubr
          167 -221 -329 -270 -120 -202 -225 -66 vhcurveto
          -304 601 vlineto
          48 369 rlineto
          -43 hlineto
          -69 -169 -150 -4 callgsubr
          -284 -272 -353 -309 224 -223 330 -46 vhcurveto
          -108 vlineto
          -312 2 -155 39 -75 171 rrcurveto
          -43 hlineto
          -97 710 13 callsubr
          endchar
        </CharString>
        <CharString name="Omicrongreek">
          0 callsubr
          57 callsubr
          -105 callsubr
          -100 callsubr
        </CharString>
        <CharString name="Omicrontonosgreek">
          1739 170 721 rmoveto
          -459 350 -286 388 446 291 332 416 459 -351 285 -387 76 callsubr
          -102 358 13 callsubr
          463 -342 rmoveto
          373 125 282 308 279 173 -297 -388 -372 -125 -283 -307 -98 callgsubr
          endchar
        </CharString>
        <CharString name="Oogonek">
          0 callsubr
          205 callsubr
        </CharString>
        <CharString name="Oogonekmacron">
          1663 566 -28 callsubr
          -472 -1006 rmoveto
          205 callsubr
        </CharString>
        <CharString name="Oslash">
          0 callsubr
          198 callsubr
        </CharString>
        <CharString name="Oslashacute">
          1663 784 -88 callsubr
          -623 -824 rmoveto
          198 callsubr
        </CharString>
        <CharString name="Otilde">
          1663 940 -48 callgsubr
          53 callsubr
          -846 -840 -104 callsubr
          -105 callsubr
          -100 callsubr
        </CharString>
        <CharString name="Otildeacute">
          1663 1102 1844 rmoveto
          128 vlineto
          -552 -158 rlineto
          -48 vlineto
          394 -204 rmoveto
          93 66 54 79 callsubr
          -18 -45 -100 callgsubr
          13 -43 -42 -46 callsubr
          25 callsubr
          32 -10 rlineto
          -13 43 41 -10 48 hhcurveto
          -850 -841 -104 callsubr
          -105 callsubr
          -100 callsubr
        </CharString>
        <CharString name="Otildedieresis">
          1663 677 1790 rmoveto
          50 40 34 45 45 -40 33 -50 hvcurveto
          -8 hlineto
          -51 -40 -33 -45 143 callsubr
          58 callgsubr
          -31 -228 rmoveto
          93 66 54 79 callsubr
          -18 -45 -100 callgsubr
          13 -43 -42 -46 callsubr
          25 callsubr
          32 -10 rlineto
          -13 43 41 -10 48 hhcurveto
          -850 -841 -104 callsubr
          -105 callsubr
          -100 callsubr
        </CharString>
        <CharString name="Otildemacron">
          1663 550 54 callgsubr
          66 54 79 callsubr
          -18 -45 -100 callgsubr
          13 -43 -42 -46 callsubr
          25 callsubr
          32 -10 rlineto
          -13 43 41 -10 48 hhcurveto
          -850 -841 -104 callsubr
          -105 callsubr
          -100 callsubr
        </CharString>
        <CharString name="P">
          1322 1238 1024 45 callsubr
        </CharString>
        <CharString name="Pacute">
          1322 582 -88 callsubr
          723 -521 45 callsubr
        </CharString>
        <CharString name="Pdotaccent">
          1322 624 -49 callsubr
          614 -552 45 callsubr
        </CharString>
        <CharString name="Pecyrillic">
          1610 1402 -63 callsubr
          -38 callsubr
          -1493 -54 vlineto
          -84 callsubr
          -106 callsubr
          -42 callsubr
          1200 666 -1200 vlineto
          -86 -21 -19 -121 -17 vhcurveto
          -54 555 54 vlineto
          -129 18 -20 21 89 vvcurveto
          endchar
        </CharString>
        <CharString name="Phigreek">
          1838 82 720 rmoveto
          -324 284 -180 428 -13 vhcurveto
          -7 vlineto
          -98 -20 -27 -141 -17 vhcurveto
          -54 573 80 callsubr
          7 vlineto
          404 14 307 172 335 vvcurveto
          324 -288 179 -423 13 vhcurveto
          8 vlineto
          98 20 27 141 17 vhcurveto
          54 -573 -54 vlineto
          141 -17 20 -27 -98 vvcurveto
          -8 vlineto
          -401 -13 -311 -170 -337 vvcurveto
          1403 -1 rmoveto
          -263 -172 -166 -268 -18 vhcurveto
          901 vlineto
          285 -18 155 -169 -267 vvcurveto
          -1132 8 rmoveto
          261 170 167 271 18 vhcurveto
          -901 vlineto
          -283 17 -158 169 269 vvcurveto
          endchar
        </CharString>
        <CharString name="Pigreek">
          1580 1373 -63 callsubr
          38 callsubr
          -1464 -54 vlineto
          -84 callsubr
          -106 callsubr
          -42 callsubr
          1200 636 -1200 vlineto
          -86 -20 -19 -121 -17 vhcurveto
          -54 555 -29 callgsubr
        </CharString>
        <CharString name="Psigreek">
          1783 1017 196 rmoveto
          324 vlineto
          318 10 181 122 47 328 rrcurveto
          33 238 18 125 34 32 91 4 rlinecurve
          54 vlineto
          5 -29 -55 6 -53 hhcurveto
          -146 -77 -58 -187 -27 hvcurveto
          -37 -248 -36 -241 -79 -107 -183 -15 rlinecurve
          680 vlineto
          85 20 20 121 16 vhcurveto
          55 -533 -55 vlineto
          121 -16 20 -20 -85 vvcurveto
          -680 vlineto
          -183 15 -79 107 -36 241 -37 248 rcurveline
          187 -27 -77 58 -147 hhcurveto
          -52 -55 -6 -5 -30 hvcurveto
          -54 vlineto
          92 -4 34 -32 18 -125 rrcurveto
          33 -238 46 -329 182 -121 318 -10 rlinecurve
          -324 vlineto
          -98 -20 -27 -140 -17 vhcurveto
          -54 572 80 callsubr
          endchar
        </CharString>
        <CharString name="Q">
          0 callsubr
          -431 309 -278 358 -33 vhcurveto
          141 -128 rlineto
          -179 199 92 -36 121 hhcurveto
          97 95 31 44 75 hvcurveto
          49 vlineto
          -121 -15 -108 42 -192 152 -89 72 rcurveline
          308 95 190 281 337 vvcurveto
          -105 callsubr
          -387 -447 -291 -331 -416 vhcurveto
          295 16 rmoveto
          373 125 282 307 280 174 -297 -388 vhcurveto
          -372 -1 -125 -283 -306 hhcurveto
          -281 -173 298 387 hvcurveto
          endchar
        </CharString>
        <CharString name="R">
          1357 1221 1055 151 callsubr
          endchar
        </CharString>
        <CharString name="Racute">
          1357 602 -88 callsubr
          686 -490 151 callsubr
          endchar
        </CharString>
        <CharString name="Rcaron">
          1357 867 -1 callsubr
          71 callsubr
          289 -781 151 callsubr
          endchar
        </CharString>
        <CharString name="Rcommaaccent">
          -60 callgsubr
          -248 -1501 167 callsubr
        </CharString>
        <CharString name="Rdblgrave">
          1357 452 138 callsubr
          -95 callgsubr
          366 -488 151 callsubr
          endchar
        </CharString>
        <CharString name="Rdotaccent">
          1357 644 15 callsubr
          28 callsubr
          577 -521 151 callsubr
          endchar
        </CharString>
        <CharString name="Rdotbelow">
          -60 callgsubr
          -239 -1220 -80 callsubr
          93 callsubr
          hvcurveto
          endchar
        </CharString>
        <CharString name="Rdotbelowmacron">
          1357 384 -28 callsubr
          837 -672 151 callsubr
          -239 -1220 -80 callsubr
          93 callsubr
          hvcurveto
          endchar
        </CharString>
        <CharString name="Rhogreek">
          1322 1238 1024 45 callsubr
        </CharString>
        <CharString name="Rinvertedbreve">
          1357 644 119 callsubr
          88 callgsubr
          577 -829 151 callsubr
          endchar
        </CharString>
        <CharString name="Rlinebelow">
          -60 callgsubr
          -508 -1390 -77 callsubr
        </CharString>
        <CharString name="S">
          1193 576 -24 99 callsubr
          endchar
        </CharString>
        <CharString name="Sacute">
          1193 579 -47 callgsubr
          65 -1569 99 callsubr
          endchar
        </CharString>
        <CharString name="Sacutedotaccent">
          1193 620 1758 rmoveto
          55 43 37 47 49 -43 36 -55 -54 -43 -36 -49 -47 43 -37 54 hvcurveto
          276 -137 148 callsubr
          231 -1567 99 callsubr
          endchar
        </CharString>
        <CharString name="Scaron">
          1193 843 68 callsubr
          136 callsubr
          -332 -1860 99 callsubr
          endchar
        </CharString>
        <CharString name="Scarondotaccent">
          1193 620 1778 rmoveto
          55 43 36 48 48 -43 37 -55 -54 -43 -37 -48 -48 43 -36 54 hvcurveto
          283 -18 rmoveto
          -282 -88 -283 88 0 -49 262 -164 43 0 260 164 rlineto
          -327 -1735 99 callsubr
          endchar
        </CharString>
        <CharString name="Scedilla">
          1193 555 -464 rmoveto
          -96 callgsubr
          22 callsubr
          64 86 rlineto
          272 14 214 164 253 vvcurveto
          207 -122 140 -255 87 vhcurveto
          -117 40 rlineto
          -173 61 -97 76 138 vvcurveto
          137 98 98 186 180 131 -118 -224 48 vhcurveto
          51 hlineto
          -12 321 rlineto
          52 -68 -142 45 -186 hhcurveto
          -306 -215 -153 -251 -202 133 -140 242 -81 hvcurveto
          118 -40 rlineto
          186 -64 85 -89 -139 vvcurveto
          -154 -116 -103 -174 -203 -171 125 250 -55 vhcurveto
          -50 hlineto
          13 -340 rlineto
          87 -59 156 -47 191 -5 -112 -144 rcurveline
          -101 callgsubr
          -64 -49 -52 16 21 -29 hvcurveto
          -1 -53 rlineto
          -46 36 75 -31 90 hhcurveto
          endchar
        </CharString>
        <CharString name="Schwa">
          1492 687 -24 rmoveto
          437 274 301 448 486 -318 258 -421 -231 -170 -44 -59 -86 hvcurveto
          -12 -341 rlineto
          50 hlineto
          231 52 148 137 229 hhcurveto
          300 169 -249 -418 hvcurveto
          -15 0 -15 -14 vvcurveto
          -1035 hlineto
          -4 -28 -3 -34 -33 vvcurveto
          -360 214 -251 407 vhcurveto
          -356 586 rmoveto
          17 1 18 1 17 vhcurveto
          772 3 rlineto
          -329 -23 -126 -236 -264 hhcurveto
          -271 -90 237 273 hvcurveto
          endchar
        </CharString>
        <CharString name="Scircumflex">
          1193 420 -69 callsubr
          -6 callsubr
          221 -1568 99 callsubr
          endchar
        </CharString>
        <CharString name="Scommaaccent">
          1193 576 -24 99 callsubr
          -1 -440 -40 callsubr
          60 callsubr
          33 hhcurveto
          62 47 -28 -49 -50 -47 -28 -65 -55 -37 callgsubr
          87 hhcurveto
          endchar
        </CharString>
        <CharString name="Sdotaccent">
          1193 620 -49 callsubr
          -44 -1600 99 callsubr
          endchar
        </CharString>
        <CharString name="Sdotbelow">
          1193 576 -24 99 callsubr
          9 -159 66 callsubr
        </CharString>
        <CharString name="Sdotbelowdotaccent">
          1193 620 -49 callsubr
          -44 -1600 99 callsubr
          9 -159 66 callsubr
        </CharString>
        <CharString name="Shacyrillic">
          2303 2096 -63 callsubr
          38 callsubr
          -555 -55 vlineto
          120 -17 21 141 callsubr
          20 18 121 17 vhcurveto
          55 -547 -55 vlineto
          121 -17 20 141 callsubr
          21 18 -73 callsubr
          -84 callsubr
          -106 callsubr
          2187 -29 callgsubr
        </CharString>
        <CharString name="Shchacyrillic">
          2336 2284 68 rmoveto
          -188 1194 hlineto
          89 38 callsubr
          -555 -55 vlineto
          120 -17 21 141 callsubr
          20 18 121 17 vhcurveto
          55 -547 -55 vlineto
          121 -17 20 141 callsubr
          21 18 -73 callsubr
          -84 callsubr
          -106 callsubr
          1858 vlineto
          196 42 -38 -285 80 hvcurveto
          59 hlineto
          endchar
        </CharString>
        <CharString name="Sigmagreek">
          1264 1127 1444 rmoveto
          -1074 -51 hlineto
          504 -701 -497 -561 rlineto
          -131 1108 vlineto
          16 448 rlineto
          -54 hlineto
          -225 -54 -74 -35 -291 hhcurveto
          -510 hlineto
          568 596 0 22 -407 577 310 -10 292 -11 71 -63 55 -217 rlinecurve
          50 hlineto
          endchar
        </CharString>
        <CharString name="Softsigncyrillic">
          1320 1239 175 callsubr
          -576 -54 vlineto
          -84 callsubr
          -106 callsubr
          607 vlineto
          372 202 190 251 hvcurveto
          -282 -8 -10 callgsubr
        </CharString>
        <CharString name="T">
          1335 -43 callsubr
          -60 callsubr
          -54 callsubr
          -52 callsubr
          -51 callsubr
          -58 callsubr
          endchar
        </CharString>
        <CharString name="Taugreek">
          1335 -43 callsubr
          -60 callsubr
          -54 callsubr
          -52 callsubr
          -51 callsubr
          -58 callsubr
          endchar
        </CharString>
        <CharString name="Tbar">
          1335 257 706 rmoveto
          278 -511 hlineto
          -97 -21 -27 -140 -17 vhcurveto
          -54 -52 callsubr
          -21 27 97 vvcurveto
          511 278 68 -278 607 -58 callsubr
          -13 363 -1219 0 -13 -60 callsubr
          -607 -278 vlineto
          endchar
        </CharString>
        <CharString name="Tcaron">
          1335 890 -1 callsubr
          71 callsubr
          322 -392 rmoveto
          -1219 hlineto
          -13 -60 callsubr
          -54 callsubr
          -52 callsubr
          -51 callsubr
          -58 callsubr
          endchar
        </CharString>
        <CharString name="Tcedilla">
          1335 638 -464 rmoveto
          85 callgsubr
          -9 -1 -1 -8 hvcurveto
          79 109 rlineto
          249 54 hlineto
          -141 17 -51 callsubr
          -58 callsubr
          -13 363 -1219 0 -13 -60 callsubr
          -54 callsubr
          269 vlineto
          -127 -168 rlineto
          -48 vlineto
          4 10 19 -26 callgsubr
          73 callgsubr
          endchar
        </CharString>
        <CharString name="Tcircumflexbelow">
          1335 -43 callsubr
          -60 callsubr
          -54 callsubr
          -52 callsubr
          -51 callsubr
          -58 callsubr
          -836 -1536 11 callsubr
        </CharString>
        <CharString name="Tcommaaccent">
          1335 -43 callsubr
          -60 callsubr
          -54 callsubr
          -52 callsubr
          -51 callsubr
          -58 callsubr
          -632 -1545 159 callsubr
          -37 callgsubr
          88 hhcurveto
          endchar
        </CharString>
        <CharString name="Tdotaccent">
          1335 667 -49 callsubr
          610 -132 rmoveto
          -1219 hlineto
          -13 -60 callsubr
          -54 callsubr
          -52 callsubr
          -51 callsubr
          -58 callsubr
          endchar
        </CharString>
        <CharString name="Tdotbelow">
          1335 -43 callsubr
          -60 callsubr
          -54 callsubr
          -52 callsubr
          -51 callsubr
          -58 callsubr
          -623 -1264 -80 callsubr
          -78 callsubr
        </CharString>
        <CharString name="Tecyrillic">
          1335 -43 callsubr
          -60 callsubr
          -54 callsubr
          -52 callsubr
          -51 callsubr
          -58 callsubr
          endchar
        </CharString>
        <CharString name="Thetagreek">
          1668 834 -24 rmoveto
          447 293 331 416 460 -352 285 -388 -448 -292 -331 -416 -459 352 -286 388 hvcurveto
          10 72 rmoveto
          -290 -177 296 393 380 129 279 318 290 178 -294 -395 -379 -130 -280 -318 hvcurveto
          -302 439 rmoveto
          44 hlineto
          142 23 40 55 140 hhcurveto
          88 hlineto
          139 41 -55 -142 22 hvcurveto
          45 461 -45 hlineto
          -140 -22 -41 -53 -139 hhcurveto
          -88 hlineto
          -140 -40 53 140 -23 hvcurveto
          -44 hlineto
          endchar
        </CharString>
        <CharString name="Thorn">
          1302 1236 746 rmoveto
          265 -238 124 -375 vhcurveto
          -151 113 hlineto
          98 21 27 141 17 vhcurveto
          54 -576 -54 vlineto
          131 -18 19 -21 -88 vvcurveto
          -1082 vlineto
          -88 -19 -21 -131 -18 vhcurveto
          -54 -20 callsubr
          139 151 vlineto
          355 258 140 271 hvcurveto
          -282 -17 rmoveto
          -205 -140 -115 -253 -9 vhcurveto
          -89 -2 0 675 89 -3 rlineto
          258 -8 135 -131 -202 vvcurveto
          endchar
        </CharString>
        <CharString name="Tlinebelow">
          1335 -43 callsubr
          -60 callsubr
          -54 callsubr
          -52 callsubr
          -51 callsubr
          -58 callsubr
          -892 -1434 -77 callsubr
        </CharString>
        <CharString name="Tsecyrillic">
          1643 1591 68 rmoveto
          -189 1194 hlineto
          89 -38 callsubr
          -555 -55 vlineto
          121 -17 21 -19 -85 vvcurveto
          -1200 -666 1200 -8 callsubr
          -84 callsubr
          -106 callsubr
          1165 vlineto
          196 42 -38 -285 79 hvcurveto
          59 hlineto
          endchar
        </CharString>
        <CharString name="Tshecyrillic">
          1792 -43 callsubr
          -16 callgsubr
          486 vlineto
          42 69 92 20 109 hhcurveto
          203 101 -117 -234 hvcurveto
          -384 407 54 vlineto
          -122 17 -20 19 86 vvcurveto
          211 vlineto
          315 -202 127 -283 -151 -124 -35 -52 -79 vhcurveto
          638 76 callgsubr
        </CharString>
        <CharString name="U">
          1511 175 1268 -85 callsubr
        </CharString>
        <CharString name="Uacute">
          1511 780 -47 callgsubr
          -537 -277 -85 callsubr
        </CharString>
        <CharString name="Ubreve">
          1511 821 1585 rmoveto
          170 92 124 126 17 -1 17 -2 15 hvcurveto
          -57 -6 hlineto
          -91 -80 -66 -122 -121 -89 callgsubr
          -1 -17 -17 vvcurveto
          -126 94 -124 168 vhcurveto
          -646 -317 -85 callsubr
        </CharString>
        <CharString name="Ubrevecyrillic">
          1422 792 1585 rmoveto
          185 115 107 121 68 -45 45 -61 -60 -43 -46 -56 -56 43 -43 53 hvcurveto
          3 4 0 4 hhcurveto
          -46 -42 -69 -29 -87 hhcurveto
          -87 -69 29 46 -42 hvcurveto
          4 4 0 4 hhcurveto
          52 43 43 56 56 -43 46 -60 -61 -44 -45 -68 -121 114 -107 185 hvcurveto
          -554 -1465 203 callsubr
        </CharString>
        <CharString name="Ucaron">
          1511 1044 68 callsubr
          136 callsubr
          -934 -568 -85 callsubr
        </CharString>
        <CharString name="Ucircumflex">
          1511 621 -69 callsubr
          -6 callsubr
          -381 -276 -85 callsubr
        </CharString>
        <CharString name="Ucircumflexbelow">
          122 callsubr
          408 -1723 11 callsubr
        </CharString>
        <CharString name="Ucyrillic">
          1422 238 120 203 callsubr
        </CharString>
        <CharString name="Udblgrave">
          1511 629 -9 callgsubr
          -857 -275 -85 callsubr
        </CharString>
        <CharString name="Udieresis">
          1511 658 112 callsubr
          -41 callgsubr
          -811 -309 -85 callsubr
        </CharString>
        <CharString name="Udieresisacute">
          1511 1097 59 callsubr
          126 -208 rmoveto
          63 callsubr
          90 callsubr
          -796 -290 -85 callsubr
        </CharString>
        <CharString name="Udieresisbelow">
          122 callsubr
          418 -1666 rmoveto
          131 callsubr
          15 callgsubr
        </CharString>
        <CharString name="Udieresiscaron">
          1511 1097 1971 rmoveto
          -276 -85 -276 85 0 -47 256 -158 41 0 255 158 rlineto
          -425 -366 rmoveto
          63 callsubr
          90 callsubr
          -796 -290 -85 callsubr
        </CharString>
        <CharString name="Udieresisgrave">
          1511 546 26 callgsubr
          63 callsubr
          90 callsubr
          -796 -290 -85 callsubr
        </CharString>
        <CharString name="Udieresismacron">
          1511 545 1821 -19 callsubr
          127 -360 rmoveto
          63 callsubr
          90 callsubr
          -796 -290 -85 callsubr
        </CharString>
        <CharString name="Udotbelow">
          122 callsubr
          621 -1451 -80 callsubr
          62 50 -86 callgsubr
        </CharString>
        <CharString name="Ugrave">
          1511 885 -80 callgsubr
          -382 -549 -85 callsubr
        </CharString>
        <CharString name="Uhookabove">
          1511 847 1869 rmoveto
          -94 -68 -44 -52 -33 hvcurveto
          -42 vlineto
          22 25 -67 callgsubr
          89 callgsubr
          -672 -601 -85 callsubr
        </CharString>
        <CharString name="Uhorn">
          1626 182 543 42 callsubr
        </CharString>
        <CharString name="Uhornacute">
          1626 802 -88 callsubr
          -553 -1002 42 callsubr
        </CharString>
        <CharString name="Uhorndotbelow">
          1626 182 543 rmoveto
          -397 278 -170 306 360 209 221 342 4 vhcurveto
          6 868 rlineto
          -2 17 18 -2 18 hhcurveto
          148 82 64 105 89 -63 85 -90 44 hvcurveto
          -54 hlineto
          21 -26 16 -54 -54 vvcurveto
          -119 -1 -83 -93 -188 hhcurveto
          -101 -54 hlineto
          149 -21 17 -21 1 -116 5 -682 rcurveline
          -292 2 -157 -167 -248 hhcurveto
          -237 -171 146 315 hvcurveto
          704 vlineto
          93 21 20 145 21 vhcurveto
          54 -581 -54 vlineto
          129 -20 22 -21 -93 vvcurveto
          635 -1439 66 callsubr
        </CharString>
        <CharString name="Uhorngrave">
          1626 908 -80 callgsubr
          -398 -1274 42 callsubr
        </CharString>
        <CharString name="Uhornhookabove">
          1626 870 1869 rmoveto
          -94 -68 -44 -52 -34 hvcurveto
          -42 vlineto
          22 26 -67 callgsubr
          57 hlineto
          155 59 55 57 71 vvcurveto
          74 -68 52 -102 vhcurveto
          -688 -1326 42 callsubr
        </CharString>
        <CharString name="Uhorntilde">
          1626 958 120 callsubr
          -24 12 24 -33 -78 callgsubr
          5 hvcurveto
          62 hlineto
          91 4 24 -40 callgsubr
          -776 -1018 42 callsubr
        </CharString>
        <CharString name="Uhungarumlaut">
          1511 700 1824 rmoveto
          -63 -280 68 0 205 274 rlineto
          6 vlineto
          130 94 callgsubr
          -1091 -556 -85 callsubr
        </CharString>
        <CharString name="Uinvertedbreve">
          1511 821 119 callsubr
          -1 callgsubr
          -646 -616 -85 callsubr
        </CharString>
        <CharString name="Umacron">
          1511 561 144 callsubr
          -386 -459 -85 callsubr
        </CharString>
        <CharString name="Umacrondieresis">
          1511 672 1790 rmoveto
          20 callgsubr
          315 hmoveto
          20 callgsubr
          -405 -201 rmoveto
          511 97 -511 hlineto
          -391 -418 -85 callsubr
        </CharString>
        <CharString name="Uogonek">
          1511 816 -482 rmoveto
          86 74 40 59 30 hvcurveto
          -1 53 rlineto
          -18 -16 -29 -14 -35 hhcurveto
          -73 -58 79 105 61 16 57 25 39 hvcurveto
          316 30 176 217 4 322 rrcurveto
          213 callsubr
          -44 callgsubr
          vhcurveto
          4 3 0 4 hhcurveto
          -93 -76 -60 -96 -97 vvcurveto
          -115 86 -74 114 vhcurveto
          endchar
        </CharString>
        <CharString name="Upsilondieresisgreek">
          1353 586 86 callsubr
          -693 -386 -61 callsubr
        </CharString>
        <CharString name="Upsilongreek">
          1353 222 1191 -61 callsubr
        </CharString>
        <CharString name="Upsilontonosgreek">
          1685 554 1191 rmoveto
          324 -539 rlineto
          -456 vlineto
          -98 -21 -27 -141 -17 vhcurveto
          -54 588 81 callsubr
          470 vlineto
          301 191 callsubr
          8 -41 -90 -83 callgsubr
          133 18 rlinecurve
          54 -582 -54 vlineto
          100 -16 34 -27 94 -156 rrcurveto
          -486 -112 13 callsubr
          endchar
        </CharString>
        <CharString name="Uring">
          1511 579 1733 rmoveto
          -107 109 -68 133 133 110 68 107 106 -109 70 -134 -133 -109 -70 -106 vhcurveto
          152 hmoveto
          71 37 50 53 53 38 -51 -70 -72 -38 -49 -53 -53 -37 49 72 vhcurveto
          -556 -465 -85 callsubr
        </CharString>
        <CharString name="Utilde">
          1511 935 120 callsubr
          -23 12 24 -34 -78 callgsubr
          6 74 callgsubr
          29 -20 rlineto
          -35 50 42 -23 54 hhcurveto
          -760 -293 -85 callsubr
        </CharString>
        <CharString name="Utildeacute">
          1511 1097 59 callsubr
          393 -204 rmoveto
          94 65 54 79 callsubr
          -18 -45 hhcurveto
          -27 -28 7 12 -40 hvcurveto
          -31 10 rlineto
          13 -44 -42 -46 callsubr
          19 45 hhcurveto
          28 27 -6 -13 40 hvcurveto
          32 -10 rlineto
          -13 43 42 -10 47 hhcurveto
          -764 -294 -85 callsubr
        </CharString>
        <CharString name="Utildebelow">
          122 callsubr
          732 -1678 rmoveto
          92 71 67 179 -6 170 callsubr
          58 hlineto
          89 3 189 callsubr
        </CharString>
        <CharString name="V">
          78 callgsubr
          endchar
        </CharString>
        <CharString name="Vdotbelow">
          78 callgsubr
          517 -1369 -80 callsubr
          -78 callsubr
        </CharString>
        <CharString name="Vecyrillic">
          1370 1286 416 105 callsubr
        </CharString>
        <CharString name="Vtilde">
          1404 884 120 callsubr
          -53 callgsubr
          -55 hhcurveto
          -94 -72 -69 -186 5 74 callgsubr
          30 -20 rlineto
          -35 49 42 -23 54 hhcurveto
          -696 -375 rmoveto
          216 callsubr
          endchar
        </CharString>
        <CharString name="W">
          2167 185 1186 2 callsubr
        </CharString>
        <CharString name="Wacute">
          2167 1110 -88 callsubr
          -858 -359 2 callsubr
        </CharString>
        <CharString name="Wcircumflex">
          2167 951 -56 callgsubr
          69 0 -208 279 -6 callsubr
          -701 -358 2 callsubr
        </CharString>
        <CharString name="Wdieresis">
          2167 988 1577 rmoveto
          60 -41 callgsubr
          328 hmoveto
          56 callsubr
          -1131 -391 2 callsubr
        </CharString>
        <CharString name="Wdotaccent">
          2167 1152 139 callsubr
          -967 -390 2 callsubr
        </CharString>
        <CharString name="Wdotbelow">
          2167 185 1186 rmoveto
          380 -1190 158 0 364 1160 353 -1160 159 0 373 1158 59 187 34 33 113 16 rlinecurve
          54 -413 -54 vlineto
          146 -20 12 -38 -49 -172 rrcurveto
          -261 -901 -268 928 -45 156 11 28 134 19 rlinecurve
          54 -555 -54 vlineto
          140 -21 15 -28 -46 -161 rrcurveto
          -263 -921 -274 927 -43 148 16 38 139 18 rlinecurve
          54 -584 -54 vlineto
          104 -14 39 -29 52 -161 rrcurveto
          901 -1369 -80 callsubr
          -78 callsubr
        </CharString>
        <CharString name="Wgrave">
          2167 1215 -82 callgsubr
          -702 -631 2 callsubr
        </CharString>
        <CharString name="X">
          1383 283 292 41 callsubr
        </CharString>
        <CharString name="Xdieresis">
          1383 600 112 callsubr
          -41 callgsubr
          -645 -1285 41 callsubr
        </CharString>
        <CharString name="Xdotaccent">
          1383 763 -49 callsubr
          -480 -1284 41 callsubr
        </CharString>
        <CharString name="Xigreek">
          1349 1255 1444 rmoveto
          -1160 hlineto
          -16 -391 rlineto
          49 hlineto
          178 50 79 35 252 hhcurveto
          331 hlineto
          253 78 -35 -178 49 hvcurveto
          51 hlineto
          -676 -357 rmoveto
          159 hlineto
          177 43 -46 -146 27 hvcurveto
          47 449 -47 hlineto
          -144 -27 -43 -44 -177 hhcurveto
          -159 13 callgsubr
          673 -696 rmoveto
          17 434 rlineto
          -50 hlineto
          -220 -52 -74 -31 -288 hhcurveto
          -293 hlineto
          -287 -75 32 219 -52 hvcurveto
          -50 hlineto
          18 -434 rlineto
          endchar
        </CharString>
        <CharString name="Xigreek.1">
          1351 596 696 rmoveto
          49 -513 -116 hlineto
          -287 -75 32 219 -51 hvcurveto
          -51 hlineto
          18 -434 1185 0 18 434 rlineto
          -50 hlineto
          -220 -52 -75 -31 -287 hhcurveto
          -117 513 50 hlineto
          177 43 -46 -146 26 hvcurveto
          48 449 -48 hlineto
          -144 -26 -43 -44 -177 hhcurveto
          -50 501 136 hlineto
          252 79 -35 -178 49 hvcurveto
          51 hlineto
          -16 391 -1160 0 -17 -391 rlineto
          51 hlineto
          178 49 79 35 253 hhcurveto
          134 -501 -49 13 callgsubr
          endchar
        </CharString>
        <CharString name="Y">
          1353 222 1191 -61 callsubr
        </CharString>
        <CharString name="Yacute">
          1353 708 -88 callsubr
          -419 -354 -61 callsubr
        </CharString>
        <CharString name="Ycircumflex">
          1353 549 -56 callgsubr
          69 -25 callgsubr
          -262 -353 -61 callsubr
        </CharString>
        <CharString name="Ydieresis">
          1353 586 86 callsubr
          -693 -386 -61 callsubr
        </CharString>
        <CharString name="Ydotaccent">
          1353 750 -61 callgsubr
          97 callsubr
          -528 -385 -61 callsubr
        </CharString>
        <CharString name="Ydotbelow">
          1353 222 1191 rmoveto
          323 -539 rlineto
          -456 30 callsubr
          587 80 callsubr
          470 vlineto
          300 191 callsubr
          9 -41 -91 -83 callgsubr
          45 callgsubr
          463 -1374 -80 callsubr
          -78 callsubr
        </CharString>
        <CharString name="Yericyrillic">
          1915 1239 175 callsubr
          -576 -54 vlineto
          -84 callsubr
          -106 callsubr
          607 vlineto
          372 202 190 251 hvcurveto
          468 -259 -79 callsubr
          18 -21 -89 vvcurveto
          -1080 vlineto
          -89 -18 -21 -131 -18 vhcurveto
          -54 19 callsubr
          -750 251 -10 callgsubr
        </CharString>
        <CharString name="Ygrave">
          1353 813 -82 callgsubr
          -263 -626 -61 callsubr
        </CharString>
        <CharString name="Yhookabove">
          1353 776 1869 54 callsubr
          -69 52 -101 vhcurveto
          -554 -678 -61 callsubr
        </CharString>
        <CharString name="Yicyrillic">
          680 176 1577 rmoveto
          60 -41 callgsubr
          328 hmoveto
          56 callsubr
          -32 -1395 -79 callsubr
          -94 callsubr
          -81 callsubr
        </CharString>
        <CharString name="Ymacron">
          1353 489 144 callsubr
          -267 -536 -61 callsubr
        </CharString>
        <CharString name="Ytilde">
          1353 864 128 callsubr
          -40 hhcurveto
          -29 -53 callgsubr
          -54 -50 callgsubr
          24 29 41 -51 callgsubr
          41 -23 55 hhcurveto
          -642 -370 -61 callsubr
        </CharString>
        <CharString name="Z">
          1269 1178 hmoveto
          8 callsubr
        </CharString>
        <CharString name="Zacute">
          1269 602 -88 callsubr
          643 -1545 rmoveto
          8 callsubr
        </CharString>
        <CharString name="Zcaron">
          1269 867 -1 callsubr
          207 -279 91 callsubr
          246 -1836 rmoveto
          8 callsubr
        </CharString>
        <CharString name="Zcircumflex">
          1269 444 -69 callsubr
          -23 callsubr
          800 -1544 rmoveto
          8 callsubr
        </CharString>
        <CharString name="Zdotaccent">
          1269 644 15 callsubr
          -63 97 callsubr
          534 -1576 rmoveto
          8 callsubr
        </CharString>
        <CharString name="Zdotbelow">
          -3 callgsubr
          563 -190 66 callsubr
        </CharString>
        <CharString name="Zecyrillic">
          1251 1167 417 rmoveto
          235 -203 108 -252 18 vhcurveto
          220 31 180 115 193 vvcurveto
          223 -187 128 -348 -192 -154 -51 -58 -81 vhcurveto
          -11 -306 rlineto
          50 hlineto
          220 53 120 119 197 hhcurveto
          196 83 -125 -177 -190 -113 -110 -206 hvcurveto
          -138 -65 138 hlineto
          238 130 -116 -210 -226 -137 -121 -216 -183 -138 104 243 -56 hvcurveto
          -50 hlineto
          13 -306 rlineto
          -62 88 163 -55 182 hhcurveto
          337 277 146 295 hvcurveto
          endchar
        </CharString>
        <CharString name="Zetagreek">
          1269 1178 hmoveto
          8 callsubr
        </CharString>
        <CharString name="Zhecyrillic">
          2034 337 hmoveto
          433 713 rlineto
          116 -537 hlineto
          -86 -18 -19 -124 -17 vhcurveto
          -54 534 54 vlineto
          -123 17 -18 19 86 vvcurveto
          537 115 vlineto
          433 -713 rlineto
          354 51 hlineto
          -77 22 -47 45 -131 214 rrcurveto
          -346 572 248 273 135 145 66 47 115 21 rlinecurve
          54 -440 -54 vlineto
          145 -15 3 -47 -97 -117 rrcurveto
          -361 -430 -115 -2 rlineto
          489 vlineto
          86 18 19 123 17 vhcurveto
          54 -534 -54 vlineto
          124 -17 18 -19 -86 vvcurveto
          -489 vlineto
          -115 2 -361 430 -97 117 3 47 145 15 rlinecurve
          54 -440 -54 vlineto
          115 -21 64 -47 133 -145 rrcurveto
          258 -284 -340 -561 -131 -214 -48 -45 -77 -22 rlinecurve
          -51 vlineto
          endchar
        </CharString>
        <CharString name="Zlinebelow">
          -3 callgsubr
          294 -360 -77 callsubr
        </CharString>
        <CharString name="a">
          1091 370 -20 -99 callsubr
        </CharString>
        <CharString name="a.dnum">
          679 226 -11 -7 callgsubr
          43 hvcurveto
          237 221 callsubr
          158 rmoveto
          55 21 callgsubr
          53 hvcurveto
          endchar
        </CharString>
        <CharString name="a.numr">
          665 226 681 rmoveto
          88 71 36 52 26 hvcurveto
          -55 12 55 -29 64 hhcurveto
          47 40 12 16 22 hvcurveto
          37 vlineto
          -2 -6 -9 -1 -9 hhcurveto
          -31 -24 18 43 hvcurveto
          238 vlineto
          126 -91 56 -151 -147 -99 -59 -74 -42 34 -30 45 45 33 32 43 28 -15 24 -23 12 vhcurveto
          7 21 25 4 25 hhcurveto
          82 50 -36 -91 hvcurveto
          -44 vlineto
          -116 -24 rlineto
          -165 -33 -62 -55 -79 vvcurveto
          -76 66 -54 97 vhcurveto
          4 158 rmoveto
          55 33 34 95 21 vhcurveto
          48 9 rlineto
          -158 vlineto
          -27 -18 -32 -16 -41 hhcurveto
          -49 -36 29 53 hvcurveto
          endchar
        </CharString>
        <CharString name="a.sups">
          679 226 853 -7 callgsubr
          42 hvcurveto
          238 221 callsubr
          157 rmoveto
          56 21 callgsubr
          52 hvcurveto
          endchar
        </CharString>
        <CharString name="aacute">
          1091 458 -70 callsubr
          -65 callsubr
          -20 -1136 -99 callsubr
        </CharString>
        <CharString name="abreve">
          1091 510 129 callsubr
          75 callsubr
          186 callsubr
          -140 -1164 -99 callsubr
        </CharString>
        <CharString name="abreveacute">
          1091 779 -39 callsubr
          -53 callsubr
          269 -282 -33 callsubr
          -140 -1120 -99 callsubr
        </CharString>
        <CharString name="abrevecyrillic">
          1091 510 55 callgsubr
          5 callgsubr
          -39 hvcurveto
          -1 4 3 callgsubr
          -140 -1158 -99 callsubr
        </CharString>
        <CharString name="abrevedotbelow">
          1091 510 129 callsubr
          75 callsubr
          186 callsubr
          -140 -1164 40 callsubr
          231 -671 -93 callsubr
          -95 callsubr
        </CharString>
        <CharString name="abrevegrave">
          1091 241 -30 callsubr
          269 -523 -33 callsubr
          -140 -1120 -99 callsubr
        </CharString>
        <CharString name="abrevehookabove">
          1091 503 1605 rmoveto
          -78 -59 -35 -38 -32 -21 callgsubr
          -28 callgsubr
          68 42 83 vvcurveto
          82 -81 46 -92 vhcurveto
          7 -505 -33 callsubr
          -140 -1120 -99 callsubr
        </CharString>
        <CharString name="abrevetilde">
          1091 625 1407 rmoveto
          91 173 callsubr
          70 callgsubr
          46 hhcurveto
          -115 -307 -33 callsubr
          -140 -1120 -99 callsubr
        </CharString>
        <CharString name="acaron">
          1091 739 -31 callsubr
          -437 -1517 -99 callsubr
        </CharString>
        <CharString name="acircumflex">
          1091 281 -48 callsubr
          157 -1136 -99 callsubr
        </CharString>
        <CharString name="acircumflexacute">
          1091 779 -39 callsubr
          -53 callsubr
          -288 vmoveto
          -71 callsubr
          129 -1171 -99 callsubr
        </CharString>
        <CharString name="acircumflexdotbelow">
          1091 281 -48 callsubr
          157 -1136 40 callsubr
          231 -671 -93 callsubr
          -95 callsubr
        </CharString>
        <CharString name="acircumflexgrave">
          1091 241 -30 callsubr
          -529 vmoveto
          -71 callsubr
          129 -1171 -99 callsubr
        </CharString>
        <CharString name="acircumflexhookabove">
          1091 717 1605 rmoveto
          -77 -58 -35 -38 -33 -21 callgsubr
          37 -27 -41 -41 -34 -23 callgsubr
          123 callsubr
          129 -1171 -99 callsubr
        </CharString>
        <CharString name="acircumflextilde">
          1091 625 1407 rmoveto
          91 173 callsubr
          70 callgsubr
          46 hhcurveto
          -384 -313 rmoveto
          -71 callsubr
          129 -1171 -99 callsubr
        </CharString>
        <CharString name="acute">
          1024 460 -70 callsubr
          -65 callsubr
          endchar
        </CharString>
        <CharString name="acutecmb">
          0 -52 -70 callsubr
          -65 callsubr
          endchar
        </CharString>
        <CharString name="acutecmb.short">
          0 -42 1087 rmoveto
          325 142 callsubr
          endchar
        </CharString>
        <CharString name="acutedotaccentcmb">
          0 1367 vmoveto
          50 callgsubr
          269 -169 -36 callgsubr
          endchar
        </CharString>
        <CharString name="acutedotaccentcmb.short">
          0 1758 vmoveto
          55 42 37 47 49 -42 36 -55 -55 -42 -36 -49 -47 42 -37 55 hvcurveto
          275 -137 148 callsubr
          endchar
        </CharString>
        <CharString name="acyrillic">
          1091 370 -20 -99 callsubr
        </CharString>
        <CharString name="adblgrave">
          1091 273 -25 callsubr
          52 callsubr
          69 hlineto
          -349 -1136 -99 callsubr
        </CharString>
        <CharString name="adieresis">
          1091 292 51 callsubr
          -68 -56 -52 -68 -67 56 -52 68 hvcurveto
          -358 -1202 -99 callsubr
        </CharString>
        <CharString name="adieresismacron">
          1091 241 115 callsubr
          53 20 callsubr
          33 callsubr
          332 hmoveto
          53 20 callsubr
          -3 callsubr
          -298 -1140 -99 callsubr
        </CharString>
        <CharString name="adotaccent">
          1091 510 -67 callsubr
          -72 callsubr
          -140 -1195 -99 callsubr
        </CharString>
        <CharString name="adotbelow">
          1091 370 -20 40 callsubr
          231 -671 -93 callsubr
          -95 callsubr
        </CharString>
        <CharString name="adotmacron">
          1091 241 171 callsubr
          -140 -1140 -99 callsubr
        </CharString>
        <CharString name="ae">
          1636 373 -20 149 callsubr
        </CharString>
        <CharString name="aeacute">
          1636 771 -70 callsubr
          -254 vlineto
          -157 -365 rlineto
          -330 -1136 149 callsubr
        </CharString>
        <CharString name="aemacron">
          1636 534 -46 callgsubr
          -161 -1379 149 callsubr
        </CharString>
        <CharString name="agrave">
          1091 563 -44 callsubr
          154 -1492 -99 callsubr
        </CharString>
        <CharString name="ahookabove">
          1091 544 190 callsubr
          67 hlineto
          174 70 64 67 84 vvcurveto
          88 -79 61 -114 vhcurveto
          -174 -1509 -99 callsubr
        </CharString>
        <CharString name="ainvertedbreve">
          1091 510 164 callsubr
          3 17 2 -39 callgsubr
          -140 -1488 -99 callsubr
        </CharString>
        <CharString name="alphagreek">
          1275 463 -20 199 callsubr
        </CharString>
        <CharString name="alphatonosgreek">
          1275 615 37 callsubr
          -87 -1136 199 callsubr
        </CharString>
        <CharString name="amacron">
          1091 221 -27 callsubr
          149 -1379 -99 callsubr
        </CharString>
        <CharString name="ampersand">
          1600 509 -23 rmoveto
          190 141 90 167 144 hvcurveto
          240 -234 rlineto
          370 51 hlineto
          -75 23 -70 51 -161 156 rrcurveto
          -153 149 140 190 130 176 50 37 105 13 rlinecurve
          54 vlineto
          -427 -1 rlineto
          -54 vlineto
          139 -19 26 -47 -99 -150 rrcurveto
          -104 -159 -331 324 -13 13 -13 13 -13 12 rlinecurve
          212 85 120 109 148 vvcurveto
          167 -143 128 -245 -244 -163 -149 -188 -121 52 -99 126 -139 vhcurveto
          -239 -86 -120 -141 -179 vvcurveto
          -228 179 -162 249 vhcurveto
          -27 1234 rmoveto
          115 77 68 110 119 70 -100 -130 -1 vhcurveto
          -123 -55 -98 -115 -72 vhcurveto
          -149 150 -56 85 105 vvcurveto
          -175 -738 rmoveto
          109 54 87 116 63 vhcurveto
          31 -31 33 -34 38 -37 370 -362 rcurveline
          -105 -95 -96 -46 -103 hhcurveto
          -188 -160 144 212 hvcurveto
          endchar
        </CharString>
        <CharString name="anoteleiagreek">
          513 257 722 44 callgsubr
          endchar
        </CharString>
        <CharString name="aogonek">
          1093 370 -20 rmoveto
          152 123 67 87 48 hvcurveto
          -95 20 84 -52 105 hhcurveto
          14 14 0 2 13 hvcurveto
          -186 -106 -71 -94 -102 vvcurveto
          -103 86 -66 107 91 76 37 57 36 vhcurveto
          53 vlineto
          -18 -18 -33 -11 -38 hhcurveto
          -56 -49 38 76 90 53 84 134 108 hvcurveto
          50 vlineto
          -5 -12 -16 -2 -18 hhcurveto
          -59 -45 35 86 hvcurveto
          492 vlineto
          221 -155 97 -243 -239 -173 -100 -133 -68 54 -49 68 69 54 51 66 55 -38 46 -49 12 vhcurveto
          25 47 59 15 65 hhcurveto
          148 95 -68 -183 hvcurveto
          -96 vlineto
          -210 -45 rlineto
          -284 -60 -112 -96 -153 vvcurveto
          -145 121 -100 168 vhcurveto
          -46 286 rmoveto
          113 65 70 192 43 vhcurveto
          106 24 rlineto
          -331 vlineto
          -61 -38 -66 -34 -84 hhcurveto
          -99 -76 64 112 hvcurveto
          endchar
        </CharString>
        <CharString name="approxequal">
          1170 848 729 rmoveto
          -153 -165 242 -187 hhcurveto
          -155 -104 -109 -236 10 callgsubr
          236 hvcurveto
          -92 hlineto
          -171 -2 -66 -70 -96 hhcurveto
          -470 vmoveto
          -153 -165 243 -187 hhcurveto
          -155 -104 -109 -237 hvcurveto
          92 hlineto
          173 3 66 69 94 155 165 -242 186 hhcurveto
          156 103 108 237 hvcurveto
          -92 hlineto
          -171 -2 -66 -71 -96 hhcurveto
          endchar
        </CharString>
        <CharString name="aring">
          1091 242 17 callsubr
          78 callsubr
          -120 77 -148 -148 -120 35 callsubr
          132 callsubr
          -39 -1325 -99 callsubr
        </CharString>
        <CharString name="aringacute">
          1091 779 1476 rmoveto
          150 vlineto
          -53 callsubr
          -13 callgsubr
          -44 hlineto
          -45 -25 30 41 42 25 30 45 hvcurveto
          44 hlineto
          45 25 -30 -42 -41 -25 -30 -45 hvcurveto
          -162 -1165 -99 callsubr
        </CharString>
        <CharString name="aringbelow">
          1091 370 -20 40 callsubr
          -37 -557 rmoveto
          -109 120 -68 147 148 120 68 109 107 -119 70 -149 -148 -119 -69 -108 vhcurveto
          167 hmoveto
          71 41 50 59 60 41 -50 -71 -73 -41 -48 -60 -59 -41 49 72 vhcurveto
          endchar
        </CharString>
        <CharString name="asciicircum">
          1170 560 1444 rmoveto
          -432 -580 70 -66 386 517 385 -517 74 66 -433 580 rlineto
          endchar
        </CharString>
        <CharString name="asciitilde">
          1170 848 507 rmoveto
          -153 -165 242 -187 hhcurveto
          -155 -104 -108 -237 10 callgsubr
          237 hvcurveto
          -92 hlineto
          -172 -2 -66 -70 -96 hhcurveto
          endchar
        </CharString>
        <CharString name="asterisk">
          750 362 1144 rmoveto
          26 hlineto
          59 204 rlineto
          74 24 -46 47 -49 hhcurveto
          -52 -44 -47 -74 24 hvcurveto
          90 -206 rmoveto
          12 -23 201 52 rlineto
          76 16 18 62 -26 43 -25 45 -64 16 -51 -59 rrcurveto
          -191 -175 rmoveto
          12 23 -141 152 rlineto
          -51 58 -63 -15 -26 -45 -25 -44 18 -62 76 -16 rrcurveto
          212 -80 rmoveto
          -12 24 -200 -53 rlineto
          -75 -16 -18 -62 24 -43 26 -45 64 -16 50 59 rrcurveto
          191 176 rmoveto
          -12 -24 142 -152 rlineto
          50 -58 64 15 25 45 26 44 -18 61 -75 16 rrcurveto
          -219 26 rmoveto
          -26 hlineto
          -58 -204 rlineto
          -74 -25 45 -47 51 hhcurveto
          50 45 47 74 -24 hvcurveto
          endchar
        </CharString>
        <CharString name="at">
          1988 565 367 rmoveto
          -199 79 -130 145 123 123 87 164 67 vhcurveto
          -2 -8 -35 -3 vvcurveto
          -146 -19 77 -93 178 hhcurveto
          290 276 263 410 440 -348 289 -474 -535 -450 -412 -589 -503 358 -330 437 166 175 40 79 103 hvcurveto
          1 56 rlineto
          -76 -129 -142 -24 -158 hhcurveto
          -405 -321 294 472 536 414 383 487 423 313 -248 -414 -379 -246 -201 -177 -70 -45 37 120 26 hvcurveto
          152 710 -99 0 -129 -122 rlineto
          86 -31 -67 56 -110 hhcurveto
          -265 -185 -313 -303 hvcurveto
          220 -13 rmoveto
          240 110 309 174 74 45 -54 -85 8 vhcurveto
          -73 -345 rlineto
          -136 -29 -99 -135 -105 hhcurveto
          -75 -30 86 120 hvcurveto
          endchar
        </CharString>
        <CharString name="atilde">
          1091 630 -11 callsubr
          27 callsubr
          -52 -44 74 callsubr
          62 hlineto
          99 3 51 callgsubr
          57 hhcurveto
          -260 -1189 -99 callsubr
        </CharString>
        <CharString name="austral">
          1411 221 276 rmoveto
          -62 -178 -32 -28 -112 -16 rrcurveto
          -54 409 54 vlineto
          -145 20 -23 34 56 165 rrcurveto
          39 117 556 0 45 -131 50 -148 -22 -38 -141 -19 rlinecurve
          -54 567 54 vlineto
          -104 15 -35 30 -57 159 -47 132 rcurveline
          243 51 -262 hlineto
          -82 229 rlineto
          344 51 -362 hlineto
          -260 727 -145 0 -259 -727 rlineto
          -365 -51 347 hlineto
          -82 -229 rlineto
          -265 -51 247 hlineto
          199 331 rmoveto
          166 495 168 -495 rlineto
          -427 -280 rmoveto
          76 229 368 0 78 -229 rlineto
          endchar
        </CharString>
        <CharString name="austral.tnum">
          1173 -4 440 rmoveto
          -51 205 vlineto
          -33 -115 -52 -177 -25 -30 -95 -13 rlinecurve
          -54 343 54 vlineto
          -119 15 -16 29 48 176 rrcurveto
          32 115 436 0 35 -128 44 -160 -15 -32 -117 -15 rlinecurve
          -54 510 54 vlineto
          -91 12 -24 31 -49 164 -38 128 rcurveline
          202 51 -217 hlineto
          -67 229 rlineto
          284 51 -299 hlineto
          -213 727 -156 0 -211 -727 rlineto
          -302 -51 287 hlineto
          -67 -229 rlineto
          158 280 rmoveto
          128 467 128 -467 rlineto
          -332 -280 rmoveto
          62 229 284 0 62 -229 rlineto
          endchar
        </CharString>
        <CharString name="b">
          -88 callgsubr
          103 callsubr
          endchar
        </CharString>
        <CharString name="backslash">
          682 531 -280 rmoveto
          119 hlineto
          -498 1860 rlineto
          -119 hlineto
          endchar
        </CharString>
        <CharString name="baht">
          1332 76 30 rmoveto
          560 hlineto
          6 6 0 6 hhcurveto
          -219 51 221 vlineto
          294 17 240 129 250 vvcurveto
          219 -182 119 -272 16 vhcurveto
          205 19 177 99 191 vvcurveto
          195 -167 112 -295 14 vhcurveto
          220 -51 -218 vlineto
          -6 -6 0 -6 hhcurveto
          -560 71 callgsubr
          393 1267 rmoveto
          107 -3 27 -1 26 -3 25 -3 rlinecurve
          -548 vlineto
          -10 -11 -1 -10 hhcurveto
          -154 hlineto
          448 274 rmoveto
          -155 -77 -87 -135 -25 vhcurveto
          532 vlineto
          150 -38 62 -97 -130 vvcurveto
          -448 -337 rmoveto
          154 -2 rlineto
          10 11 0 10 hhcurveto
          -624 vlineto
          -25 -4 -26 -2 -27 -1 -107 -3 rcurveline
          510 324 rmoveto
          -167 -99 -103 -175 -36 vhcurveto
          610 vlineto
          178 -26 96 -113 -165 vvcurveto
          endchar
        </CharString>
        <CharString name="baht.tnum">
          1173 46 32 rmoveto
          527 hlineto
          2 3 0 2 hhcurveto
          -221 51 223 vlineto
          274 16 233 130 242 22 callgsubr
          183 -152 109 -284 13 vhcurveto
          222 -51 -220 -534 -55 vlineto
          47 callgsubr
          377 1264 rmoveto
          101 -3 rlineto
          20 18 -2 -2 18 hvcurveto
          -552 vlineto
          -9 -9 -1 -9 hhcurveto
          -130 hlineto
          402 284 rmoveto
          -150 -69 -97 -125 -28 vhcurveto
          534 vlineto
          130 -35 64 -94 -130 vvcurveto
          -402 -345 rmoveto
          130 -1 rlineto
          -1 9 9 0 9 hhcurveto
          -628 vlineto
          -2 -18 -19 -2 -19 hhcurveto
          -101 -3 rlineto
          464 321 rmoveto
          -167 -100 -103 -156 -35 vhcurveto
          613 vlineto
          164 -28 92 -113 -167 vvcurveto
          endchar
        </CharString>
        <CharString name="bar">
          682 282 -280 rmoveto
          119 1860 -119 hlineto
          endchar
        </CharString>
        <CharString name="bdotaccent">
          1212 280 1632 rmoveto
          73 59 54 72 72 -59 55 -73 -72 callsubr
          846 -1129 rmoveto
          103 callsubr
          endchar
        </CharString>
        <CharString name="bdotbelow">
          -88 callgsubr
          103 callsubr
          -252 -884 -93 callsubr
          -95 callsubr
        </CharString>
        <CharString name="becyrillic">
          1232 1146 493 rmoveto
          301 -206 191 -300 -221 -160 -128 -178 -67 vhcurveto
          -4 32 -2 34 36 vvcurveto
          216 96 171 335 35 vhcurveto
          122 13 274 30 83 70 15 195 rlinecurve
          -54 hlineto
          -17 -52 -55 -14 -220 -23 -220 -24 -132 -58 -111 -104 rrcurveto
          -132 -124 -74 -205 -315 vvcurveto
          -367 181 -245 335 285 249 203 310 vhcurveto
          -261 -15 rmoveto
          -265 -90 -159 -172 -167 -95 180 254 259 89 165 174 163 98 -176 -258 vhcurveto
          endchar
        </CharString>
        <CharString name="betagreek">
          1202 137 -460 rmoveto
          251 hlineto
          -4 210 -3 184 -2 161 rrcurveto
          -66 55 105 -50 127 hhcurveto
          222 226 146 284 262 -175 164 -240 23 hvcurveto
          169 19 167 113 185 vvcurveto
          202 -160 128 -270 -260 -204 -139 -375 -1 vhcurveto
          232 115 rmoveto
          214 76 109 154 139 71 -110 -163 -174 -101 -104 -208 -4 vhcurveto
          -172 vlineto
          244 -5 135 -131 -212 vvcurveto
          -191 -117 -96 -151 -105 -87 41 61 -44 vhcurveto
          -6 498 0 271 168 vvcurveto
          endchar
        </CharString>
        <CharString name="bitcoin">
          1327 76 30 rmoveto
          423 -219 51 219 82 hlineto
          51 51 3 7 48 hvcurveto
          -229 51 237 vlineto
          230 44 172 124 212 vvcurveto
          219 -182 119 -272 16 vhcurveto
          206 19 177 99 191 vvcurveto
          164 -118 105 -213 38 vhcurveto
          234 -51 -226 vlineto
          5 -46 -50 3 -54 hhcurveto
          -82 218 -51 -218 -423 71 callgsubr
          837 982 rmoveto
          -184 -108 -89 -186 -1 vhcurveto
          -150 559 hlineto
          103 -3 rlineto
          245 -8 96 -112 -162 vvcurveto
          62 -649 rmoveto
          -205 -148 -107 -255 -9 vhcurveto
          -103 -3 0 636 150 -2 rlineto
          230 -1 126 -120 -189 vvcurveto
          endchar
        </CharString>
        <CharString name="bitcoin.tnum">
          1173 46 32 rmoveto
          387 -221 51 221 89 hlineto
          46 45 3 6 43 hvcurveto
          -230 51 239 vlineto
          215 44 165 125 203 22 callgsubr
          153 -107 102 -202 37 vhcurveto
          235 -51 -228 vlineto
          5 -41 -45 3 -48 hhcurveto
          -89 220 -51 -220 -387 -55 hlineto
          47 callgsubr
          778 988 rmoveto
          -178 -98 -105 -174 -1 vhcurveto
          -127 560 hlineto
          98 -3 rlineto
          201 -6 100 -105 -162 vvcurveto
          61 -662 rmoveto
          -202 -147 -109 -215 -6 vhcurveto
          -98 -3 0 637 127 -1 rlineto
          212 -2 121 -122 -192 vvcurveto
          endchar
        </CharString>
        <CharString name="blinebelow">
          -88 callgsubr
          103 callsubr
          -521 -832 -77 callsubr
        </CharString>
        <CharString name="braceleft">
          682 432 985 rmoveto
          265 vlineto
          161 29 114 168 vhcurveto
          55 -41 vlineto
          -241 -123 -126 -226 hvcurveto
          -335 vlineto
          -154 -84 -63 -113 vhcurveto
          -48 vlineto
          113 84 -64 -156 hvcurveto
          -335 vlineto
          -227 123 -126 241 vhcurveto
          41 55 hlineto
          -168 -29 114 162 hvcurveto
          267 vlineto
          204 -95 104 -203 26 vhcurveto
          205 25 93 104 204 vvcurveto
          endchar
        </CharString>
        <CharString name="braceright">
          682 250 985 rmoveto
          -204 93 -104 205 -25 vhcurveto
          -203 -26 -95 -104 -204 vvcurveto
          -267 vlineto
          -162 -29 -114 -168 vhcurveto
          -55 41 vlineto
          241 123 126 227 hvcurveto
          335 vlineto
          156 84 64 113 vhcurveto
          48 vlineto
          -113 -84 63 154 hvcurveto
          335 vlineto
          226 -123 126 -241 vhcurveto
          -41 -55 hlineto
          168 29 -114 -161 hvcurveto
          endchar
        </CharString>
        <CharString name="bracketleft">
          682 180 -284 rmoveto
          430 4 0 55 -221 6 0 1738 221 6 0 55 -430 4 rlineto
          endchar
        </CharString>
        <CharString name="bracketright">
          682 503 1584 rmoveto
          -431 -4 0 -55 220 -6 0 -1738 -220 -6 0 -55 431 -4 rlineto
          endchar
        </CharString>
        <CharString name="breve">
          1024 512 129 callsubr
          75 callsubr
          -91 74 101 vhcurveto
          7 134 callsubr
          endchar
        </CharString>
        <CharString name="breveacutecmb">
          140 callsubr
          269 -282 -33 callsubr
          endchar
        </CharString>
        <CharString name="breveacutecmb.short">
          0 275 -74 callgsubr
          276 -230 36 callsubr
          -92 callgsubr
        </CharString>
        <CharString name="brevebelowcmb">
          0 -444 vmoveto
          7 callgsubr
          -85 67 91 vhcurveto
          6 -57 62 callgsubr
        </CharString>
        <CharString name="brevecmb">
          0 1144 vmoveto
          190 103 141 145 19 -2 18 -3 18 hvcurveto
          75 callsubr
          -91 74 101 vhcurveto
          7 134 callsubr
          endchar
        </CharString>
        <CharString name="brevecmb.short">
          0 1128 vmoveto
          169 93 124 126 17 -1 17 83 callsubr
          -122 -120 -89 callgsubr
          -2 -38 callgsubr
          endchar
        </CharString>
        <CharString name="brevecyrilliccmb">
          0 1138 vmoveto
          186 110 112 124 71 -45 45 -64 5 callgsubr
          -40 hvcurveto
          -1 5 3 callgsubr
          endchar
        </CharString>
        <CharString name="brevecyrilliccmb.short">
          0 1585 vmoveto
          185 114 107 121 68 -44 45 -61 -61 -42 176 callsubr
          4 0 3 hhcurveto
          53 43 197 callsubr
          endchar
        </CharString>
        <CharString name="brevegravecmb">
          0 -269 -30 callsubr
          269 -523 -33 callsubr
          endchar
        </CharString>
        <CharString name="brevegravecmb.short">
          0 -275 58 callsubr
          275 -436 36 callsubr
          -92 callgsubr
        </CharString>
        <CharString name="brevehookabovecmb">
          0 -7 1605 rmoveto
          -78 -59 -35 -38 -33 hvcurveto
          -46 vlineto
          15 23 42 14 45 hhcurveto
          61 36 -27 -41 -41 -33 -27 -68 -19 hvcurveto
          48 -36 rlineto
          121 28 68 42 83 vvcurveto
          82 -81 46 -92 vhcurveto
          7 -505 -33 callsubr
          endchar
        </CharString>
        <CharString name="brevehookabovecmb.short">
          0 -7 224 callsubr
          -92 callgsubr
        </CharString>
        <CharString name="brevetildecmb">
          0 114 -107 callgsubr
          -45 hhcurveto
          -91 55 callsubr
          -93 callgsubr
          -114 -307 -33 callsubr
          endchar
        </CharString>
        <CharString name="brevetildecmb.short">
          0 118 1794 rmoveto
          93 65 54 109 hvcurveto
          -60 hlineto
          -46 -1 -29 -19 -44 hhcurveto
          -27 -28 7 12 -40 hvcurveto
          -32 11 rlineto
          13 -44 -41 -46 callsubr
          18 45 hhcurveto
          27 28 -6 -12 40 hvcurveto
          31 -10 rlineto
          -14 44 41 -9 48 hhcurveto
          -118 -258 36 callsubr
          -92 callgsubr
        </CharString>
        <CharString name="brokenbar">
          682 282 789 rmoveto
          119 791 -119 hlineto
          -1860 vmoveto
          119 791 -119 hlineto
          endchar
        </CharString>
        <CharString name="bullet">
          715 358 375 rmoveto
          110 91 91 111 113 -91 89 -110 80 callgsubr
        </CharString>
        <CharString name="c">
          1018 583 -20 6 callsubr
        </CharString>
        <CharString name="cacute">
          1018 538 -5 callsubr
          113 -1136 6 callsubr
        </CharString>
        <CharString name="caret">
          513 235 hmoveto
          -272 -355 57 -57 236 307 236 -307 59 57 -272 355 rlineto
          endchar
        </CharString>
        <CharString name="caron">
          1024 741 -31 callsubr
          endchar
        </CharString>
        <CharString name="caroncmb">
          0 229 -31 callsubr
          endchar
        </CharString>
        <CharString name="caroncmb.short">
          0 223 1379 rmoveto
          -212 -143 -210 143 -69 0 207 -279 91 callsubr
          endchar
        </CharString>
        <CharString name="carondotaccentcmb">
          0 1367 vmoveto
          50 callgsubr
          269 -23 rmoveto
          -269 -104 -269 104 0 -57 249 -193 41 0 248 193 rlineto
          endchar
        </CharString>
        <CharString name="carondotaccentcmb.short">
          0 1778 vmoveto
          55 42 36 48 48 -42 37 -55 -55 -42 -37 -48 -48 42 -36 55 hvcurveto
          282 -18 rmoveto
          -282 -88 -282 88 0 -49 262 -164 42 0 261 164 rlineto
          endchar
        </CharString>
        <CharString name="caronslovak">
          1024 445 64 callgsubr
        </CharString>
        <CharString name="caronslovakcmb">
          0 72 64 callgsubr
        </CharString>
        <CharString name="ccaron">
          1018 819 16 callsubr
          -69 0 229 -365 135 0 229 365 rlineto
          -304 -1517 6 callsubr
        </CharString>
        <CharString name="ccedilla">
          1018 557 -464 rmoveto
          -96 callgsubr
          -96 67 -114 -8 -8 -1 -1 -8 hvcurveto
          67 90 153 9 123 62 63 87 rlinecurve
          155 callsubr
          223 callsubr
        </CharString>
        <CharString name="ccedillaacute">
          1018 538 -5 callsubr
          87 -1580 rmoveto
          -96 callgsubr
          -96 67 -114 -8 -8 -1 -1 -8 hvcurveto
          67 90 153 9 123 62 63 87 rlinecurve
          155 callsubr
          223 callsubr
        </CharString>
        <CharString name="ccircumflex">
          1018 362 18 callsubr
          69 0 -229 365 -135 0 -229 -365 rlineto
          289 -1136 6 callsubr
        </CharString>
        <CharString name="cdotaccent">
          1018 591 -72 callgsubr
          -8 -1195 6 callsubr
        </CharString>
        <CharString name="cedi">
          1341 762 -189 rmoveto
          51 201 hlineto
          1 2 0 1 hhcurveto
          178 177 47 58 78 hvcurveto
          12 304 rlineto
          -49 hlineto
          -245 -60 -132 -89 -190 hhcurveto
          -6 -6 0 1 -6 hvcurveto
          1269 vlineto
          6 6 0 6 hhcurveto
          199 122 -106 -226 56 hvcurveto
          49 hlineto
          -12 304 rlineto
          58 -87 -140 45 -205 hhcurveto
          200 -51 -201 vlineto
          -386 -22 -273 -264 -415 vvcurveto
          -429 281 -264 378 -23 vhcurveto
          -395 735 rmoveto
          346 146 223 249 34 vhcurveto
          -1259 vlineto
          -250 41 -145 268 347 vvcurveto
          endchar
        </CharString>
        <CharString name="cedi.tnum">
          1173 674 -189 rmoveto
          52 202 hlineto
          153 1 144 41 73 45 13 302 rcurveline
          -51 hlineto
          -54 -230 -112 -86 -157 1 rrcurveto
          -3 -3 0 -3 hhcurveto
          1270 vlineto
          4 4 0 4 hhcurveto
          150 107 -100 -211 49 hvcurveto
          50 hlineto
          -11 302 -79 44 -116 38 -162 1 rlinecurve
          201 -52 -202 vlineto
          -345 -21 -247 -267 -413 vvcurveto
          -450 257 -247 335 -18 vhcurveto
          -329 734 rmoveto
          349 120 219 209 36 vhcurveto
          -1260 vlineto
          -212 40 -117 251 365 vvcurveto
          endchar
        </CharString>
        <CharString name="cedilla">
          1024 483 -71 callgsubr
          -115 -8 -9 -1 -1 -8 hvcurveto
          79 109 rlineto
          28 -48 vlineto
          -149 -196 rlineto
          -101 callgsubr
          -63 -50 -52 15 22 -29 hvcurveto
          -1 -53 rlineto
          -46 36 75 -31 91 hhcurveto
          endchar
        </CharString>
        <CharString name="cedillacmb">
          0 -29 -71 callgsubr
          -115 -8 -8 -1 -1 -8 hvcurveto
          78 103 rlineto
          28 -48 vlineto
          -149 -190 rlineto
          -101 callgsubr
          -63 -50 -52 14 callsubr
          endchar
        </CharString>
        <CharString name="cent">
          1030 619 hmoveto
          210 vlineto
          160 8 128 62 65 89 rrcurveto
          54 vlineto
          -57 -58 -96 -36 -108 hhcurveto
          -32 -30 3 7 -29 hvcurveto
          813 vlineto
          2 14 15 1 16 hhcurveto
          59 52 -13 -24 40 hvcurveto
          -50 -11 -37 -45 -57 vvcurveto
          -67 51 -54 69 66 54 53 70 131 -130 95 -219 1 vhcurveto
          209 -52 -210 vlineto
          -276 -21 -205 -204 -292 vvcurveto
          -303 209 -199 272 12 callgsubr
          -137 57 -94 144 207 vvcurveto
          endchar
        </CharString>
        <CharString name="cent.1">
          1016 616 hmoveto
          210 vlineto
          154 8 124 63 64 86 rrcurveto
          54 vlineto
          -54 -56 9 callgsubr
          -23 39 hvcurveto
          -54 -9 -40 -48 -60 vvcurveto
          -67 53 228 callsubr
        </CharString>
        <CharString name="cent.1.tnum">
          1173 664 hmoveto
          210 vlineto
          154 8 124 63 64 86 -1 54 rcurveline
          -54 -55 9 callgsubr
          -22 39 hvcurveto
          -54 -10 -41 -48 -60 vvcurveto
          -67 54 228 callsubr
        </CharString>
        <CharString name="cent.tnum">
          1173 659 hmoveto
          210 vlineto
          160 8 129 62 65 89 -1 54 rcurveline
          -57 -58 -95 -36 -108 hhcurveto
          -32 -31 3 7 -29 hvcurveto
          813 vlineto
          2 15 15 1 16 hhcurveto
          59 52 -13 -24 40 hvcurveto
          -50 -11 -38 -45 -57 vvcurveto
          -67 52 -54 68 67 54 53 70 131 -131 95 -219 1 vhcurveto
          209 -51 -210 vlineto
          -276 -20 -205 -205 -292 vvcurveto
          -303 208 -199 273 12 callgsubr
          -138 57 -93 143 208 vvcurveto
          endchar
        </CharString>
        <CharString name="checyrillic">
          1234 163 698 rmoveto
          -219 138 -100 197 118 111 33 41 65 vhcurveto
          -305 vlineto
          -67 -20 -16 -131 -11 vhcurveto
          -54 529 54 vlineto
          -114 11 -20 16 67 vvcurveto
          690 vlineto
          68 20 16 114 10 vhcurveto
          55 -500 -55 vlineto
          106 -9 16 -15 -67 vvcurveto
          -332 vlineto
          -19 -40 -79 -20 -69 hhcurveto
          -130 -69 66 157 hvcurveto
          148 vlineto
          67 17 15 104 9 vhcurveto
          55 -496 -55 vlineto
          114 -10 19 -16 -68 vvcurveto
          endchar
        </CharString>
</ttFont>
